<svg xmlns="http://www.w3.org/2000/svg" viewBox="0 0 1077.65 974.53"><defs><style>.cls-1{opacity:0.8;}.cls-2{fill:#f5e330;}.cls-3{fill:#fff;}.cls-4{fill:#ffb79d;}.cls-5{fill:#f6992a;}.cls-6{fill:#ee4e74;}.cls-7{fill:#f38e7a;}</style></defs><title>blue-sprinkles</title><g id="Layer_2" data-name="Layer 2"><g id="Pattern_Editing_Mode" data-name="Pattern Editing Mode"><g class="cls-1"><path class="cls-2" d="M10.07,270.25c-8.6-.26-12.68-7.1-8.28-13.69,7.38-11.05,17-20.06,29.54-24.81,3.16-1.19,8.6.54,11.46,2.83,1.7,1.36,1.87,7.65.22,9.66-8.28,10.06-17.18,19.69-29.55,25.05A21,21,0,0,1,10.07,270.25Z"/><path class="cls-3" d="M790.06,282.21c-1.62-1.32-5.29-2.85-5.93-5.2a12.89,12.89,0,0,1,1.79-9.66c1.67-2.37,5.31-3.71,8.35-4.7,9.3-3,18.73-5.7,28.14-8.41,1.71-.49,3.88-1.16,5.31-.53,2.74,1.21,6.46,2.83,7.24,5.13s-.91,6.63-2.94,8.12C820.06,275.77,806.06,279.52,790.06,282.21Z"/><path class="cls-4" d="M50.23,690.24c-1.59-1.53-4.17-3.31-5.79-5.74-3.12-4.67-.28-8.87,3.12-11.36a202.49,202.49,0,0,1,22-13.78c4.07-2.25,9-2.91,13.15-5.07,5-2.6,8.6-1.29,11.11,3,2.7,4.55.82,8.72-3.28,11.27-11.39,7.07-23,13.83-34.56,20.59C54.83,689.79,53.2,689.69,50.23,690.24Z"/><path class="cls-3" d="M1061.13,974.52c-11.75-4.69-25.55-9.49-35-21.31-4.18-5.23-.16-12,6.57-12a11.87,11.87,0,0,1,5.26,1.21c9.3,4.85,18.6,9.74,27.69,15a13.65,13.65,0,0,1,4.79,5.74C1073.7,969.61,1070.25,974.76,1061.13,974.52Z"/><path class="cls-3" d="M498.4,203c-5.67-2.24-11.4-2.18-12.52-8.83-1.06-6.29,3.07-9.3,8.31-11.11,7.57-2.6,15.12-5.32,22.81-7.5,3.07-.86,6.83-1.35,9.68-.34,3,1.08,6.63,3.71,7.57,6.48.72,2.14-1.54,7.09-3.73,8.11C520.05,194.72,509.15,198.7,498.4,203Z"/><path class="cls-3" d="M96.45,362.1c-.16,6.49-4.11,9.39-9.63,7.81a9.77,9.77,0,0,1-3.94-1.81c-9.26-8.73-18.62-17.38-27.41-26.55-1.59-1.65-2-6.82-.72-8.25,2-2.21,7.25-4.51,9-3.41,11.91,7.5,24.81,14.19,31.28,27.85A29.58,29.58,0,0,1,96.45,362.1Z"/><path class="cls-2" d="M660.6,824.38c-2.88,4.69-4.26,8.13-6.65,10.58-7.6,7.81-15.41,15.45-23.57,22.67-1.58,1.4-5.88,1.68-7.6.52-2.61-1.76-5.74-5.25-5.71-8,.09-10.62,24-33.06,34.06-32.06C654.2,818.42,657,821.86,660.6,824.38Z"/><path class="cls-3" d="M68.37,777.49c.25,7.28-3.62,10.43-9.65,8.1a29,29,0,0,1-8.95-5.89c-7.43-6.93-14.59-14.14-21.77-21.32-2.91-2.91-4.09-6.79-.74-9.54,2.39-2,7.41-4,9.29-2.79,11.33,7.05,22.91,14.12,30,26.1C67.63,774,68,776.22,68.37,777.49Z"/><path class="cls-3" d="M414.54,40.16c-6.27-1.62-12.32-2-13.37-8.94-.92-6,3.63-9.19,8.89-10.75,9.38-2.77,18.75-5.7,28.29-7.79,4.65-1,9.91-.38,11.34,5.73,1.33,5.67-2,9-6.81,10.94C433.48,33.08,424,36.57,414.54,40.16Z"/><path class="cls-2" d="M269.43,29.77c-.06,5.3-4.78,9.2-9,7.48a95,95,0,0,1-35.68-26C220.87,6.77,223.65.9,229.6.1c2.33-.32,5.4.1,7.21,1.44C247,9.1,256.88,17,266.7,24.94,268.23,26.18,268.8,28.59,269.43,29.77Z"/><path class="cls-4" d="M458.77,530.93c-1.23,4.89-4.36,7.8-9.33,7.1-3-.43-6.74-1.81-8.56-4-6.58-8.11-12.69-16.62-18.5-25.3-1.31-2-1.89-6.47-.69-7.62,2.31-2.22,6.18-4.07,9.28-3.89,3.26.19,7.41,2.14,9.35,4.7,6.28,8.3,11.74,17.22,17.45,26A12.47,12.47,0,0,1,458.77,530.93Z"/><path class="cls-4" d="M1055.18,317c-.75-.42-3.79-1.23-5.4-3.21-6.16-7.57-11.8-15.55-17.74-23.3-3-3.84-4.57-7.84-.39-11.54,3.78-3.36,8.26-4.46,12.9-1.15A59.67,59.67,0,0,1,1065.8,306C1068.5,313.24,1065,317.2,1055.18,317Z"/><path class="cls-3" d="M582.28,962.84c1.44-2.82,3.38-8,6.5-12.3a110.28,110.28,0,0,1,14.35-16.31c1.82-1.69,6.92-2.36,8.61-1,2.28,1.77,4.43,6.47,3.64,8.95-4.1,12.79-11.79,23.38-23.24,30.66C586.56,976.36,581.83,972.53,582.28,962.84Z"/><path class="cls-2" d="M359.77,421.6c-3.65-2.81-8-4.58-9.57-7.73-2.35-4.88,1.64-7.78,6-9.73,7.28-3.25,14.34-7,21.72-10a20.66,20.66,0,0,1,10.57-1.58c2.64.44,6.12,2.95,6.92,5.32s-.26,7.54-2.05,8.46C382.8,411.76,371.78,416.28,359.77,421.6Z"/><path class="cls-3" d="M788.05,586.18c.74-6.53,7.86-10.11,12.8-5.8,9.34,8.16,14.78,19,17.07,31,1.28,6.7-6.84,11.28-12.74,8C799,615.93,787.25,593.15,788.05,586.18Z"/><path class="cls-5" d="M239,347.45c4.24,1,7.54,1,9.69,2.56,2.42,1.76,4.93,4.79,5.28,7.53.23,1.8-3,5.33-5.22,5.92-10.8,2.86-21.72,5.64-32.77,6.93-2.86.33-7.57-4.18-9.28-7.56-2.44-4.81,2.45-7.37,6.07-8.5C221.73,351.54,230.93,349.51,239,347.45Z"/><path class="cls-5" d="M857.06,476.16c11.85.82,17.58,3,17.1,8.51-.75,8.37-8.62,9-14.58,10.52-7.3,1.87-15,3.34-22.42,3.12-3.79-.12-9.34-3.54-10.73-6.87-2.16-5.18,2.69-8.44,7.58-9.75C841.64,479.64,849.37,478,857.06,476.16Z"/><path class="cls-2" d="M792.84,407.32c-3.58-3.12-8.12-5.38-9.84-9-2.11-4.45,2.36-7,6.17-8.55,9.31-3.85,18.55-7.9,28.06-11.13,2.7-.92,6.67-.09,9.33,1.31,4.15,2.18,4.44,9.65,0,12C816,397.47,805,401.89,792.84,407.32Z"/><path class="cls-2" d="M52.45,872.84c-.47.78-1,2.81-2.34,3.69C40.75,882.8,31.35,889,21.7,894.84c-4.38,2.64-9.33,3-12.34-2.33-2.63-4.63-.6-8.53,3.38-11.35,7.73-5.48,15.32-11.23,23.48-16C43.09,861.14,52.61,865.55,52.45,872.84Z"/><path class="cls-6" d="M711.83,719.9c-6.15-1.29-9.26-4.2-7.64-9.4C705.27,707,708,703,711,701.37a183.5,183.5,0,0,1,24-10.27c4.41-1.61,8.68-.52,11.13,4.22,2.53,4.9.65,9-3.59,11.07C732.53,711.28,722.11,715.44,711.83,719.9Z"/><path class="cls-3" d="M317.74,517c1.43.93,4.68,1.91,6,4.08a281.85,281.85,0,0,1,14.09,25.61c2.06,4.33.25,8.68-4,11.32-4.74,2.94-9.2.65-11.41-3a196.18,196.18,0,0,1-13.77-27.07C306.6,522.85,311.43,517.24,317.74,517Z"/><path class="cls-6" d="M192.48,230.85c-2.38-3.66-5.5-6.3-5.36-8.76.18-3.17,2.2-7.65,4.77-9a214.88,214.88,0,0,1,27-11.63c4.38-1.58,8.81-.1,10.84,4.83,2.1,5.11-.54,8.8-4.76,10.75C214.76,221.73,204.34,225.85,192.48,230.85Z"/><path class="cls-3" d="M247.05,809.72c3-3.77,4.57-7.45,7.29-8.72,2.24-1,7.43-.25,8.51,1.48a250.59,250.59,0,0,1,15.86,29.33c.86,1.91-2.11,7.23-4.58,8.49s-8.29.62-9.59-1.28C258.26,829.84,253,820,247.05,809.72Z"/><path class="cls-6" d="M991.15,393.22c-6.4-1.65-9.16-4.32-7.62-9.66.92-3.17,3.25-6.95,6-8.39a219.34,219.34,0,0,1,25-10.75c4.49-1.68,9.54-.44,10.85,4.35.84,3-.52,9-2.75,10.16C1012.48,384.36,1001.7,388.57,991.15,393.22Z"/><path class="cls-6" d="M570,368.85c-2.27-3.45-5.54-6.2-5.27-8.52.42-3.5,2.5-8.15,5.33-9.73a167.68,167.68,0,0,1,24.85-11c4.7-1.71,9.57-.68,12,4.65,2.54,5.68-.83,9.29-5.35,11.35C591.66,360.12,581.54,364.05,570,368.85Z"/><path class="cls-5" d="M979,803.09c1.09-6.71,1.75-13.59,3.44-20.22,1.29-5,4.27-9.77,10.58-8.86s7.66,6.07,7.07,11.51c-.88,8.25-2,16.49-3.39,24.67-.79,4.73-2.38,10-8.14,10.06-6.4.1-7.72-5.64-9-10.59A39.74,39.74,0,0,1,979,803.09Z"/><path class="cls-2" d="M573,41.58c1.53,1,4.78,2.18,6.79,4.48,6,6.83,11.51,14,17.12,21.18,3.42,4.37,3.3,8.63-.77,12.64s-7.79,1.44-10.41-1.39c-7.06-7.66-14.39-15.29-20.09-23.93C561.53,48.31,565.35,41.62,573,41.58Z"/><path class="cls-5" d="M552.55,799.73c-3-1.32-5.22-1.83-6.86-3.11-7.73-6-15.33-12.25-22.9-18.48-3.17-2.6-4.91-6.31-1.74-9.41,2.21-2.16,6-3.31,9.26-3.6,2.2-.2,4.87,1.49,6.88,3C544,773,550.85,777.85,557,783.52c2.17,2,3.66,6.7,2.87,9.41S555.05,797.56,552.55,799.73Z"/><path class="cls-7" d="M939.35,305.1c-.61,3.17-.5,5.19-1.35,6.66-5.21,9.05-10.35,18.18-16.21,26.8-1.25,1.84-6.3,3.18-8,2.14-2.46-1.5-5.54-6.33-4.74-8.11a324.22,324.22,0,0,1,17-32.45c1-1.75,6.26-2.51,8.65-1.53S938.19,303.33,939.35,305.1Z"/><path class="cls-7" d="M690.86,70.44c-6.86-.6-9.1-4.33-7.56-9.25,1.19-3.81,4-8.17,7.3-10,6.93-3.87,14.62-6.45,22.14-9.17,5.38-2,10.47-1,12.83,4.76,2.28,5.54-1.22,9.17-5.85,11.28C710.2,62.38,700.49,66.33,690.86,70.44Z"/><path class="cls-7" d="M485.94,649c-1.14,3.82-1.49,6.84-2.88,9.28-4.29,7.57-9,14.9-13.49,22.36-2.73,4.51-6.75,5.6-11.2,3.48s-4.68-6.52-2.82-10.35c4.57-9.43,9.18-18.92,14.79-27.73,1.58-2.47,6.78-3.76,10.18-3.53C482.52,642.62,484.25,646.81,485.94,649Z"/><path class="cls-3" d="M469.48,386.71c6.67-12.28,12.23-23.78,22.68-31.65,1.61-1.21,6.2-.78,7.64.66a12.4,12.4,0,0,1,3.05,8.59c-.14,2.59-2.42,5.16-4,7.54q-6.7,9.93-13.67,19.68c-2.54,3.56-6.15,6.08-10.18,3.3C472.46,393.09,471.25,389.46,469.48,386.71Z"/><path class="cls-2" d="M715.2,552.58c-.59,2.15-.56,3.46-1.2,4.19-7.34,8.45-14.48,17.13-22.48,24.92-1.59,1.55-7.21.57-9.76-1.09-1.51-1-1.55-5.88-.72-8.54,3.26-10.47,10.77-18,19.18-24.45,2.33-1.77,7-1.67,10.11-.78C712.49,547.44,713.85,550.88,715.2,552.58Z"/><path class="cls-3" d="M1051,572.23c1.42.89,4,1.79,5.55,3.61,6.44,7.81,12.74,15.76,18.68,24a15.23,15.23,0,0,1,2.45,8.19c.15,5.22-5.25,8.54-8.65,5a375.33,375.33,0,0,1-26.09-30.24C1040,579,1045.18,572.14,1051,572.23Z"/><path class="cls-6" d="M532.74,902.87c7.85.33,12.61,7.31,9.16,12.47a172.93,172.93,0,0,1-18.34,23c-2,2.13-7.67,2.95-10.48,1.7-4.31-1.92-3.71-7-1.48-10.58,4.79-7.74,9.88-15.32,15.28-22.64C528.44,904.71,531.47,903.69,532.74,902.87Z"/><path class="cls-2" d="M139.65,480.18c-8.65-.08-28-13.62-30.07-19.55a7.52,7.52,0,0,1,8.24-9.74,46.13,46.13,0,0,1,28.46,14.54c1.89,2.07,2.58,7.48,1.19,9.74C145.71,478,141.27,479.23,139.65,480.18Z"/><path class="cls-5" d="M430.25,604.59c-1.09,1.6-2.47,5.28-5.11,7.21-7.31,5.35-15.11,10-22.79,14.86-4.47,2.8-8.33,1.57-11.48-2.38S388.66,616,392,613.61A239.42,239.42,0,0,1,420.59,596C425.76,593.41,430.16,597.3,430.25,604.59Z"/><path class="cls-2" d="M293.48,249.53c-.11.71,0,1.63-.39,2.09-7.81,8.9-15.46,18-23.8,26.36-1.25,1.26-6.18,0-8.64-1.48-1.41-.82-2.33-4.7-1.64-6.52,4.18-11.05,10.65-20.69,20.8-27.07C285.89,239.09,293.39,243.09,293.48,249.53Z"/><path class="cls-2" d="M329.68,616.15c8-.25,12.86,6.9,8.8,12.6a164.14,164.14,0,0,1-19.85,22.78c-2.06,2-7.65,1.84-10.7.53-1.5-.64-2.35-7-1-9.35a209.52,209.52,0,0,1,16.16-22.77C324.74,617.87,328,617.08,329.68,616.15Z"/><path class="cls-7" d="M178,697.4c-1.29,1.6-3,5.14-5.8,6.85A157.56,157.56,0,0,1,149,716.33c-3,1.2-8.74.41-10.51-1.72s-.92-7.88,1-10.48c6.93-9.65,18.21-13,28.66-17C173.2,685.18,178.37,690.25,178,697.4Z"/><path class="cls-5" d="M957.36,233.2c-2.28-1.13-4.13-1.63-5.45-2.76-8.53-7.33-17-14.73-25.34-22.29a10,10,0,0,1-3.31-5.5c-.29-2.53-.13-6.18,1.43-7.56s5.65-1.46,7.53-.31c5.22,3.21,9.94,7.26,14.7,11.16,4.49,3.68,9.4,7.1,12.93,11.58,2.12,2.69,2.61,7.2,2.53,10.86C962.35,230,959.13,231.6,957.36,233.2Z"/><path class="cls-4" d="M230,142.64c-3-1.8-7.52-3-9.16-5.81-2.74-4.71,1.47-8.46,5.14-10.55A270.59,270.59,0,0,1,254,112c2.49-1.07,6.73.72,9.54,2.32,1.08.61,1.45,5.21.37,6.47A67.47,67.47,0,0,1,230,142.64Z"/><path class="cls-2" d="M980.15,461.7c2.64,1.19,4.51,1.63,5.88,2.71,6.3,4.94,12.8,9.72,18.51,15.29,2.33,2.28,3.74,6.36,4,9.74.53,7.34-5.45,10.93-11.26,6.48a213.44,213.44,0,0,1-22.66-20.38c-1.61-1.65-1.45-6.23-.47-8.85C975,464.51,978.18,463.23,980.15,461.7Z"/><path class="cls-5" d="M663.1,339.73c1.51.79,4,1.6,5.9,3.18,8.31,7,16.69,14,24.48,21.65,2.23,2.17,3.92,6.51,3.42,9.45-.69,4.09-4.67,7.71-8.91,4.21a353.23,353.23,0,0,1-29.83-27A6.72,6.72,0,0,1,663.1,339.73Z"/><path class="cls-4" d="M62,87c4.36,0,9-.89,13,.27,3.3,1,7.77,4,8.28,6.73S80.8,102,78,103.26c-4.7,2.19-10.43,2.83-15.74,2.9A77.27,77.27,0,0,1,45.15,104c-2.46-.53-5.76-2.36-6.46-4.38s.41-6.05,2.15-7.56a24.63,24.63,0,0,1,10.25-5C54.53,86.31,58.32,87,62,87Z"/><path class="cls-2" d="M1055.13,30c-.05,9.58-5.11,12.95-11.4,8.43-7.92-5.68-15.07-12.52-22.17-19.26-3.65-3.46-3.64-7.86,0-11.69,3.34-3.56,7.31-3.27,10.81-.5,6.57,5.18,13.08,10.46,19.16,16.2C1053.65,25.26,1054.47,28.73,1055.13,30Z"/><path class="cls-4" d="M1030.19,850.21c4.36,0,9-.85,13,.29,2.93.82,6.36,3.86,7.28,6.66.71,2.17-1.41,6.46-3.56,8.09a19.31,19.31,0,0,1-10.85,4,130.59,130.59,0,0,1-23.67-2.32c-2.61-.49-6.14-3.64-6.55-6s2.14-6.8,4.35-7.57c6.32-2.22,13.13-3,19.75-4.4Z"/><path class="cls-2" d="M516.75,291.07c0,7.86-5.58,11.92-10.74,8.08a180.85,180.85,0,0,1-23.43-20.9c-1.71-1.82-.9-7.88.91-10.49,1.18-1.72,7.21-2.18,9.4-.71a161.69,161.69,0,0,1,20.17,16.43C515.24,285.51,515.88,289.17,516.75,291.07Z"/><path class="cls-2" d="M870.54,751.7c-2.87-1.37-4.75-1.84-6-3-7.07-6.17-14.43-12.11-20.74-19-2-2.19-2.6-7.76-1.25-10.5,2.25-4.58,7.53-4.35,11.33-1.57,7,5.11,13.9,10.44,19.89,16.61,2.29,2.36,2.87,7.38,2.45,11C875.9,747.63,872.47,749.63,870.54,751.7Z"/><path class="cls-3" d="M112.1,214.61c3.18,1.5,6.22,2.23,8.3,4,6.29,5.5,12.42,11.22,18.2,17.25,3.45,3.59,3.52,8-.19,11.71-3.5,3.47-7.5,2.73-10.78-.27-7-6.35-14-12.72-20.3-19.69-1.69-1.87-1.75-6.14-1-8.93C106.72,217,110,216,112.1,214.61Z"/><path class="cls-5" d="M911.06,58c-5.74,11.05-9.69,22.2-19.95,28.64-2.32,1.46-7,.83-9.79-.56-3.9-2-3.36-6.08-1.16-9.46,5.33-8.13,10.52-16.39,16.48-24,1.39-1.79,6.1-2.53,8.44-1.61S909.05,55.46,911.06,58Z"/><path class="cls-6" d="M910.7,689.13c-1-.59-2.86-1.21-4.09-2.44-6.39-6.42-12.78-12.86-18.82-19.61a12.64,12.64,0,0,1-2.67-7c-.55-6.5,5.25-10.6,10.72-7.05a54.63,54.63,0,0,1,21.3,26.81C919.09,684.93,915.71,689.47,910.7,689.13Z"/><path class="cls-2" d="M437.76,958.79c0,6.15-6.49,11-11.87,7.81-8.58-5-16.26-11.74-23.68-18.45-1.35-1.22-.51-6.37.94-8.71,1.17-1.87,5.84-3.83,7.13-3,9,5.92,17.57,12.5,26.14,19.06C437.39,956.26,437.5,958.12,437.76,958.79Z"/><path class="cls-5" d="M113.81,82.61c5.49-10.45,10.07-20,15.55-28.95,1.17-1.91,6.56-3.4,8.28-2.32,2.47,1.54,5.38,6.37,4.59,8.49A245.48,245.48,0,0,1,128.6,89.57c-1,1.82-6.45,3.28-8.12,2.2C117.6,89.93,116.09,86,113.81,82.61Z"/><path class="cls-6" d="M704.78,160.92c.72.11,1.45.18,2.15.35,7,1.75,23.69,23.07,23.49,30-.16,5.76-5.3,9.1-9.55,5.32-7.81-6.93-15.42-14.4-21.56-22.78C694.84,167.74,698.61,160.87,704.78,160.92Z"/><path class="cls-6" d="M167.38,964.21c-12.92-3.15-21.91-9.71-29.26-18.48-1.09-1.29-.58-5.42.72-6.85,1.66-1.82,5.6-3.8,7.28-3a274.2,274.2,0,0,1,27.53,15c1.45.9,2,5.85.88,7.68C172.93,961.17,169.45,962.67,167.38,964.21Z"/><path class="cls-3" d="M772.21,916.46c-3.06-2.12-7.87-3.74-8.66-6.5-.71-2.52,2.21-8.11,4.81-9.15a134.35,134.35,0,0,1,27-7.71c2.64-.45,7,3.25,8.74,6.14.74,1.25-2.61,6.71-5.16,7.83C790.68,910.67,781.92,913.16,772.21,916.46Z"/><path class="cls-7" d="M1013.72,683.22c-7.2-4.06-14.88-7.5-21.36-12.49-2.69-2.07-5-9.42-3.65-10.92,2.61-2.91,8.8-5.6,12-4.38,7.19,2.75,13.46,7.92,20.1,12.11-2.47,5.08,1.54,4.16,4.18,4.52l-.18-.07,2.36,2.31,0-.19c-.13,5.08.49,10.76-7.88,7.15C1017.91,680.7,1015.58,682.51,1013.72,683.22Z"/><path class="cls-7" d="M278.05,955.65c-3.79-.92-6.67-.9-8.62-2.24a251.66,251.66,0,0,1-21.79-16.31c-1.94-1.66-3.46-7.13-2.42-8.22,2-2.06,6.81-4,8.94-2.88a249.72,249.72,0,0,1,27.94,16.49c2,1.34,3.28,6.08,2.5,8.48C283.87,953.2,280,954.39,278.05,955.65Z"/><path class="cls-7" d="M963.39,128.7c.85-1.61,2.45-4.78,4.19-7.88,3.21-5.7,6.07-11.68,10-16.88,1.59-2.11,5.61-3.52,8.35-3.26,2,.18,4.75,3.31,5.37,5.62,2.35,8.62-9,28.68-17.41,31.74C967,140.53,963.08,137.76,963.39,128.7Z"/><path class="cls-7" d="M378.07,187.79c-1,1.3-2.42,5-4.8,5.8-2.91.95-7.76.63-9.77-1.26a150.79,150.79,0,0,1-17.29-19.62c-1.5-2-1.48-6.4-.3-8.8,1-2,4.69-3.7,7.15-3.65C360.19,160.41,377.71,179,378.07,187.79Z"/><path class="cls-4" d="M750.42,449.73c0,4,.94,8.34-.27,11.94-1.1,3.27-4,7-7.07,8.28-4.52,1.87-8.31-2-8.51-6.1-.56-11.13-1.11-22.47.46-33.42,1-7.11,8.27-8,11.58-1.59,3.14,6.16,3.76,13.62,5.49,20.5Z"/><path class="cls-6" d="M403.43,747c2.26,1.66,5.83,3,7.26,5.55a183.54,183.54,0,0,1,12.07,25.28c.79,2.13-2,6.91-4.44,8.47-1.66,1.07-7.12-.44-8.17-2.31a240.58,240.58,0,0,1-13.65-28.35C394.78,751.32,398,748.23,403.43,747Z"/><path class="cls-4" d="M390,866.89c-10.66-5-20.58-9.18-29.91-14.42-2.26-1.26-3.93-6.27-3.45-9.15.84-5,6.09-5.39,9.73-4.1a269.85,269.85,0,0,1,28.89,12c2.12,1,4.42,6.09,3.59,7.84C397.39,862.09,393.55,863.94,390,866.89Z"/><path class="cls-4" d="M228.25,488.3c.92-6.84,1.58-12.23,2.4-17.59.6-4,2.64-7.63,7-6.47a14.42,14.42,0,0,1,7.94,6.31c1.69,3,2,7,2,10.57A116.28,116.28,0,0,1,246,500.6c-.48,2.62-3.21,6.52-5.27,6.76-2.95.35-8-1.33-9-3.56C229.48,498.69,229.14,492.72,228.25,488.3Z"/><path class="cls-3" d="M635.2,659.88c3.09,2.64,7.56,4.74,8.52,7.91.6,2-3.49,7.05-6.45,8.18a123.71,123.71,0,0,1-25.07,6.69c-3,.45-6.61-2.94-9.94-4.58,1.88-3.17,3-8,5.78-9.2C616.24,665.28,625.08,663.1,635.2,659.88Z"/><path class="cls-3" d="M471.42,848.34c-3-2.35-7.22-4.13-8.4-7.11-.75-1.88,2.43-7.21,4.9-8.13a171.4,171.4,0,0,1,28-7.8c2.39-.44,7.13,3,7.92,5.48.66,2.1-2.26,7-4.71,8.07C490.54,842.51,481.46,845,471.42,848.34Z"/><path class="cls-5" d="M32.6,446.87c1.42,1.24,5.52,3.24,6.55,6.27.71,2.11-2.16,6.42-4.55,8.39a149.59,149.59,0,0,1-17.9,12.39,18.9,18.9,0,0,1-9.23,2.77c-4.91,0-7.34-3.1-6.08-8.05C3.29,461.17,22.27,447,32.6,446.87Z"/><path class="cls-5" d="M464,83.86c-.32.89-.44,2.58-1.33,3.56C456,94.6,449.6,102,442.4,108.54c-3.41,3.09-8.2,2.91-11.64-1.39-3.31-4.13-1.26-8,1.53-10.79,6.4-6.37,12.91-12.85,20.28-18C457.92,74.63,463.6,77.82,464,83.86Z"/><path class="cls-5" d="M178.43,623.12c-.15,7.09-7.8,11.56-12.91,6.48a96.74,96.74,0,0,1-16.85-23.4c-2.82-5.35,4.53-11.55,10.33-9.57S178.54,617.47,178.43,623.12Z"/><path class="cls-6" d="M245.94,741.15c-5.36-.11-9.43-4.9-6.56-9.65a150.94,150.94,0,0,1,18.45-24c3.07-3.32,9.08.48,10.38,5.86C270.25,721.92,254.66,741.34,245.94,741.15Z"/><path class="cls-4" d="M814.61,122.84c-1.37,1.61-2.7,4.62-4.53,5-2.92.54-7.37.43-9.06-1.37-7.94-8.47-15.26-17.52-22.46-26.63-.8-1,0-4.3,1.12-5.59,3.64-4.15,9.12-4.93,12.64-1.3,7.54,7.76,14.07,16.52,20.88,25C814,118.9,814,120.6,814.61,122.84Z"/><path class="cls-6" d="M927,962.83c-5,.11-8.24-3.26-7.07-8.52a28.71,28.71,0,0,1,5-10.65,99.83,99.83,0,0,1,11.7-12.89c4.63-4.36,10.94-2.12,12.34,4C951,943.41,935.88,962.65,927,962.83Z"/><path class="cls-6" d="M385.69,263.31c4.65.11,8,5.24,5.24,9.31A251,251,0,0,1,373.66,295c-1.66,2-5,3.14-7.7,3.41-5,.49-8.28-2.58-6.45-7.33,4.59-11.94,13.27-20.68,24.08-27.32A6.72,6.72,0,0,1,385.69,263.31Z"/><path class="cls-7" d="M900.4,842c-4.89,8.66-9,17.12-14.27,24.72-2.63,3.78-7.54,6.12-12.54,2.42s-3.9-8.13-1.12-12.52c4.48-7.05,8.64-14.36,13.86-20.81,1.64-2,6.7-2.79,9.42-1.87C897.86,834.64,898.75,838.89,900.4,842Z"/><path class="cls-6" d="M1039.18,152.76a9.73,9.73,0,0,1,0,1.08c-.51,5.32-18.19,26.92-23.49,27.86-2.51.44-6-.21-7.81-1.78-1.32-1.13-1.64-5-.73-6.91a60.56,60.56,0,0,1,22.29-25A6.28,6.28,0,0,1,1039.18,152.76Z"/><path class="cls-4" d="M728.87,964.45c-1.06,1.52-2.41,4.66-4.78,6.36-1.19.85-4.83-.24-6.38-1.59-8.2-7.14-16.29-14.45-23.92-22.19-1.39-1.41-1.52-5.72-.38-7.52,1.24-2,5.28-4.19,7-3.51,11.81,4.69,20.47,13.48,27.86,23.56C728.82,960.32,728.56,961.69,728.87,964.45Z"/><path class="cls-6" d="M551.63,532.45c-.22,3.63.28,7.53-.9,10.82-1,2.64-3.61,5.69-6.13,6.42-1.85.53-6.05-1.84-6.88-3.87a47.53,47.53,0,0,1-2.31-30.89c.59-2.16,4-4.81,6.26-4.91s5.84,2.28,6.59,4.38c2,5.72,2.89,11.87,4.21,17.85Z"/><path class="cls-4" d="M625.43,237.15a13.63,13.63,0,0,1-2.09,3.91c-6.47,6.76-13.23,13.26-19.64,20.08-3.26,3.47-6.86,3.12-9.45.36-1.75-1.87-2.94-5.86-2.19-8.19,3.67-11.32,12.23-18.68,22.59-23.52C620.52,227.05,625.78,230.82,625.43,237.15Z"/><path class="cls-6" d="M836.17,24C832,29.71,826.28,38,820,45.72c-1,1.2-5.68,1.18-6.86,0-2-2.09-4.2-5.94-3.61-8.38,2.38-9.69,7.19-18.43,15.53-24.27C830.93,8.92,836.3,12.8,836.17,24Z"/><path class="cls-4" d="M960.72,553.64c-5,11.47-10.85,21.52-21.13,27.81-2.09,1.27-7,.52-8.87-1.2-1.69-1.58-2.35-6.58-1.1-8.59A141.46,141.46,0,0,1,945.82,550c2.09-2.23,7.34-2.18,11-1.86C958.35,548.27,959.55,551.88,960.72,553.64Z"/><path class="cls-6" d="M353.33,85.12c0,2.91.77,6.11-.2,8.65-1.16,3-3.51,7.23-5.93,7.67s-7.48-2.92-7.88-5.22a161.89,161.89,0,0,1-2.27-28c0-2.16,4-5.8,6.37-6s6.52,2.48,7.35,4.81c2.05,5.7,2.63,11.93,3.81,17.94Z"/><path class="cls-3" d="M47.78,12.64C41.37,22.4,35.45,31.77,29,40.75c-.75,1-5.36.77-6.73-.48-1.8-1.65-3.71-5.61-2.9-7.29A255.59,255.59,0,0,1,34,6.66c1-1.52,5.43-2,7.59-1.23S45.13,9.36,47.78,12.64Z"/><path class="cls-4" d="M138.87,841.12c0,8.11-12.78,25.26-20.75,27.78-6.42,2-12.55-2.7-9.5-8.25a111.21,111.21,0,0,1,19.44-25.37C132.15,831.29,138.85,835.65,138.87,841.12Z"/><path class="cls-5" d="M36.26,943.44c-1.74,6.61-2.91,13.45-5.48,19.72-1.11,2.69-5.15,4.18-7.85,6.22-2.18-3-6-5.87-6.2-9-.4-6.37.87-12.92,1.95-19.31,1.23-7.27,5.18-10.75,10.49-9.78C36.23,932.59,35.41,938.17,36.26,943.44Z"/><path class="cls-6" d="M24.29,580.59c-3.26-1-5.85-1.33-8-2.49-4.27-2.32-5-6.33-.55-8.26a214,214,0,0,1,28.64-9.93c2-.54,7,2.7,7.14,4.55.28,2.76-1.73,7.48-4,8.47C39.92,576.23,31.77,578.23,24.29,580.59Z"/><path class="cls-4" d="M727.9,830.71c1.53-6.29,2.44-12.84,4.86-18.77,1-2.57,6.13-6,7.79-5.27,3,1.27,6.76,5.39,6.71,8.26-.11,7.12-2,14.26-3.55,21.31-1,4.65-3.59,8-9.19,7-5.15-.94-5.89-4.71-5.78-9,0-1.1,0-2.19,0-3.28Z"/><path class="cls-7" d="M658.39,468.72a18.43,18.43,0,0,1,4.12,1c8,4.15,11.09,9.11,8.77,14s-8.64,5.32-16.27.62c-4.87-3-9.28-6.74-13.89-10.15-.73-2.3-1.51-4.58-2.17-6.9-.43-1.48-.7-3-1-4.53,1.61.31,3.38.3,4.79,1,3.14,1.58,5.95,3.92,9.2,5.16C653.76,469.72,656.21,468.87,658.39,468.72Z"/><path class="cls-7" d="M658.39,468.72c-2.18.15-4.63,1-6.48.29-3.25-1.24-6.06-3.58-9.2-5.16-1.41-.71-3.18-.7-4.79-1,.33,1.51.6,3.05,1,4.53.66,2.32,1.44,4.6,2.17,6.9-8.24-4.75-11.61-9.57-9.42-13.48,2.56-4.57,10-4.36,17.47.72C652.39,463.7,655.33,466.31,658.39,468.72Z"/><path class="cls-7" d="M1013.72,683.22c1.86-.71,4.19-2.52,5.51-2,8.37,3.61,7.75-2.07,7.88-7.15,1.68,2.31,4.7,4.66,4.62,6.91-.06,1.82-3.85,4.9-6,4.93C1021.73,686,1017.72,684.23,1013.72,683.22Z"/><path class="cls-7" d="M1025,672.06c-2.64-.36-6.65.56-4.18-4.52Z"/><path class="cls-7" d="M1027.15,674.3l-2.36-2.31Z"/></g></g></g></svg>