<svg xmlns="http://www.w3.org/2000/svg" viewBox="0 0 547 877"><defs><style>.cls-1{fill:#f2bc6d;}.cls-2{fill:#5b2a11;}.cls-3{fill:none;}</style></defs><title>1_almonds</title><g id="Layer_2" data-name="Layer 2"><g id="Layer_1-2" data-name="Layer 1"><path class="cls-1" d="M227,518.35c4.56-4.16,27.95,7.22,27.7-9.73C254.48,493.13,230.74,515,227,518.35Z"/><path class="cls-2" d="M227.78,519.65c2.25-1.73,6.66-.59,9.21-.33,3.64.38,7.44.85,11.07.11a10.56,10.56,0,0,0,7.6-14.29c-4.69-11.74-25.27,8.1-29.7,12.15-1.43,1.31.7,3.43,2.12,2.12a116.86,116.86,0,0,1,12.08-9.9c3.36-2.32,12.79-8.92,13.06-.89.51,15.48-20,3.07-27,8.44C224.75,518.22,226.24,520.83,227.78,519.65Z"/><path class="cls-1" d="M313.5,518.29h0a8.88,8.88,0,0,0,6.09,2.83,14.16,14.16,0,0,0,13.48-8.62c2.42-6.36,1.11-13.86-6.48-14.88C318.06,496.48,315.67,512.56,313.5,518.29Z"/><path class="cls-2" d="M312.05,517.89h0a1.46,1.46,0,0,0,.39,1.46c5.91,5.47,15,3.42,19.82-2.54,3.86-4.74,5.19-13.48.32-18.06a8.91,8.91,0,0,0-13.46,1c-4.09,5.16-4.9,12.13-7.07,18.15-.65,1.82,2.24,2.61,2.9.8,1.93-5.38,3.07-17.67,9.66-19.48s8.84,6,7.68,10.74a12.53,12.53,0,0,1-6,8,12,12,0,0,1-5.41,1.64c-1.25,0-5.61-1.68-5.89-.94C315.63,516.88,312.73,516.1,312.05,517.89Z"/><path class="cls-1" d="M187.92,502.85c6.11,11.61,4.31,41.3-16.62,29.28C149.57,519.66,189.79,506.4,187.92,502.85Z"/><path class="cls-2" d="M186.63,503.61c3.51,7,4.29,17.47.78,24.64-1.89,3.86-5.24,5.78-9.53,5-3.77-.73-10.26-3.75-11.38-7.92-1.68-6.33,9.21-11.9,13.41-14.47,2.08-1.27,10.64-4.79,9.46-8.36-.6-1.83-3.5-1-2.89.79-.17-.49-.91.47-1.55.94-1.22.9-2.57,1.65-3.86,2.43-2.92,1.77-5.87,3.5-8.65,5.49-4.09,2.93-9.91,7.43-9,13.19,1,6.37,10,10.79,15.8,11.11,6.54.37,10.58-4.65,12.18-10.48a34.87,34.87,0,0,0-2.21-23.83C188.36,500.37,185.77,501.89,186.63,503.61Z"/><path class="cls-1" d="M374.4,521.88a33.28,33.28,0,0,1,2.42-19.34c1.1-2.42,2.79-4.94,5.4-5.43,3.69-.7,6.87,3.34,6.79,7.1s-2.32,7.06-4.49,10.13C379.83,521,379.09,515.23,374.4,521.88Z"/><path class="cls-2" d="M375.84,521.48A32.73,32.73,0,0,1,377.07,506c.93-2.74,3.16-9.27,7.81-6.91,4,2,2.55,7.44,1,10.39-1,1.92-2.61,4.75-4.33,6.07-1.4,1.07-2.07.71-3.44,1.3a12,12,0,0,0-5,4.27c-1.17,1.53,1.43,3,2.59,1.51,2.27-3,4.17-2.4,6.88-4.07s4.52-5,5.9-7.57c2.38-4.43,3.17-10.14-1.12-13.75s-8.85-.83-11.23,3.33c-3.69,6.46-4.25,14.5-3.17,21.7C373.24,524.18,376.13,523.38,375.84,521.48Z"/><path class="cls-1" d="M282,482.54a41.88,41.88,0,0,1,23.87-8.81c4.43,3.26,1.67,11.08-3.45,13.09s-10.86.21-16.06-1.6C279.9,483,288.54,484.8,282,482.54Z"/><path class="cls-2" d="M282.79,483.83a42.85,42.85,0,0,1,12.42-6.63c3.49-1.14,11.7-4.33,11.33,1.78-.32,5.41-5.72,7.51-10.45,7.17a31.71,31.71,0,0,1-7.72-1.84c-.9-.3-1.79-.61-2.68-.94-1-.61-1.13-.53-.42.25l-.69,1.7a3.45,3.45,0,0,0,.79-.29,1.55,1.55,0,0,0,.69-1.69c-.4-1.41-2.47-1.83-3.63-2.25-1.81-.66-2.6,2.24-.79,2.89,1.32.48,1.83,1.23,1.53.16l.68-1.7a3.43,3.43,0,0,0-.78.29,1.54,1.54,0,0,0-.69,1.69c.32,1.13,1.55,1.45,2.51,1.84a36.64,36.64,0,0,0,11.2,2.89c5.8.39,11.39-2.09,13.11-8,1.33-4.57-.61-9.24-5.7-8.72a44.31,44.31,0,0,0-22.22,8.82C279.75,482.39,281.25,485,282.79,483.83Z"/><path class="cls-1" d="M138.93,513.38h0a5.88,5.88,0,0,1,.27.84c1,3.66-1.55,7.94-4.23,10.16C118.26,516.72,134.3,501.84,138.93,513.38Z"/><path class="cls-2" d="M137.48,513.78c1.41,3.51-1,7.28-3.57,9.54l1.82-.23c-3.69-1.75-9-5.84-5.7-10.37a4.74,4.74,0,0,1,3.76-2.07c2,0,3.13,1.82,3.85,3.49s3.34.24,2.59-1.52c-2.28-5.32-8.56-6.68-12.34-2-4.88,6,.73,12.4,6.32,15.06a1.57,1.57,0,0,0,1.82-.23c3.32-2.92,6.14-8,4.35-12.47C139.67,511.21,136.76,512,137.48,513.78Z"/><path class="cls-1" d="M266.54,534.61v0a5.87,5.87,0,0,0,1.12,5.17,5.43,5.43,0,0,0,5,2.28c8.33-1.19,1.31-9.68-1.88-11.14A6.25,6.25,0,0,0,266.54,534.61Z"/><path class="cls-2" d="M265.09,534.21a7.63,7.63,0,0,0,6.25,9.37c3.15.3,6.83-1.5,6.69-5-.12-2.95-2.49-5.81-4.66-7.61-1.11-.92-2.13-1.74-3.61-1.25a7.89,7.89,0,0,0-4.52,4.17c-.84,1.73,1.75,3.25,2.59,1.52a5.18,5.18,0,0,1,3.29-3l-1.15-.15c2.08,1,4.64,3.63,5,6,.23,1.47-.8,2.06-2.18,2.28A4.46,4.46,0,0,1,268,535C268.55,533.16,265.66,532.37,265.09,534.21Z"/><path class="cls-1" d="M228.25,487.23c6.64,3.51,8.56-6.28,7.56-10.19C230.88,476.22,219.73,482.73,228.25,487.23Z"/><path class="cls-2" d="M227.49,488.53c7.59,3.72,11.17-5.8,9.77-11.89a1.53,1.53,0,0,0-1.45-1.1c-3.6-.48-8,1.46-10.43,4.07-3.07,3.3-1.48,6.91,2.11,8.92,1.69.94,3.2-1.65,1.51-2.59-1-.55-2.51-1.39-2.34-2.73.13-1,1.24-1.95,2-2.52a10.45,10.45,0,0,1,7.12-2.15l-1.44-1.11c.75,3.29-.55,10.87-5.37,8.51C227.28,485.09,225.75,487.68,227.49,488.53Z"/><path class="cls-1" d="M217.92,554.25h0l9.75-.06c.28,0-.15-13.44-.23-14.59a83,83,0,0,0-9,4.51C217.44,547.43,217.89,550.49,217.92,554.25Z"/><path class="cls-2" d="M216.42,554.25h0a1.52,1.52,0,0,0,1.5,1.5l7,0c1.16,0,3,.44,3.89-.61.7-.85.42-2.6.41-3.6,0-4-.09-7.94-.32-11.9a1.51,1.51,0,0,0-1.9-1.44,51.88,51.88,0,0,0-8.41,4.1c-3.6,2.09-2.27,8.46-2.21,12,0,1.93,3,1.93,3,0,0-2.22-.24-4.48-.07-6.71s0-2.25,1.73-3.2a52.73,52.73,0,0,1,6.76-3.29l-1.9-1.45c.14,2.37.18,4.75.23,7.12,0,1.51.08,3,.09,4.53,0,.57,0,1.14,0,1.71s-.33,1.11.11.47l1.3-.74-9.75.06,1.5,1.5h0A1.5,1.5,0,0,0,216.42,554.25Z"/><path class="cls-1" d="M403.2,524.61v0a7.39,7.39,0,0,0,1,7.83,4.38,4.38,0,0,0,2.94,1.47c9.5.68,4.05-10.77.26-13.16A7.39,7.39,0,0,0,403.2,524.61Z"/><path class="cls-2" d="M401.91,523.85c-2,3.95-.57,10.22,4.17,11.42,3.28.82,7.17-.53,7.79-4.13.55-3.24-1.25-6.81-3.2-9.29-.72-.92-1.94-2.53-3.24-2.58-2.3-.07-4.57,2.84-5.52,4.58s1.66,3.21,2.59,1.52a8.65,8.65,0,0,1,1.5-2c.54-.56.88-1,1.18-.86.55.2,1.21,1.29,1.53,1.76a12,12,0,0,1,2.17,4.9c.25,1.62-.09,2.87-1.83,3.25-4,.87-6.17-3.74-4.55-7C405.35,523.64,402.76,522.12,401.91,523.85Z"/><path class="cls-1" d="M89.53,554.61c12.19,4.42,8.14-16.13,3.41-20.39C88.2,536.76,79.74,551.05,89.53,554.61Z"/><path class="cls-2" d="M89.13,556.05c13.69,4.48,10.87-17,4.87-22.9a1.54,1.54,0,0,0-1.82-.23c-7.38,4.42-13.35,18.8-3.05,23.13,1.78.75,2.55-2.15.8-2.89-7.54-3.17-1.05-14.77,3.76-17.65l-1.81-.23c3.94,3.87,7.91,21.11-1.95,17.88C88.09,552.56,87.3,555.45,89.13,556.05Z"/><path class="cls-1" d="M332.37,544.8v0a8,8,0,0,0,1.17,8.37,4.78,4.78,0,0,0,3,1.56C349.5,556.44,336.4,536.19,332.37,544.8Z"/><path class="cls-2" d="M331.08,544c-1.85,4-.79,9.81,3.52,11.72,2.5,1.11,6.6.93,8.24-1.6,2.63-4.07-1.48-10.41-5.17-12.32a4.62,4.62,0,0,0-6.59,2.2c-.86,1.72,1.73,3.25,2.59,1.52,2-4,6,2,6.66,4.19.43,1.39.54,3-1.12,3.46-4.47,1.29-7.31-3.85-5.54-7.65C334.48,543.82,331.89,542.29,331.08,544Z"/><path class="cls-1" d="M352.27,491.21h0l7.39,0c3.36,0-2.1-12.09-5.07-13.36C351.65,481.68,351,486.4,352.27,491.21Z"/><path class="cls-2" d="M350.82,491.6h0a1.51,1.51,0,0,0,1.44,1.1,58.79,58.79,0,0,0,7.39,0,2.69,2.69,0,0,0,1.84-.81c1.11-1.22.71-3.21.35-4.64-.88-3.49-3.07-8.95-6.5-10.71a1.54,1.54,0,0,0-2.05.54c-3.14,4.31-3.67,9.37-2.48,14.47.44,1.88,3.34,1.09,2.9-.79a14.19,14.19,0,0,1,2.17-12.17l-2.05.54c2.24,1.16,3.67,4.8,4.51,7a11.85,11.85,0,0,1,.86,3.66c0,.33.22,0,.45-.11-.33.22-1.7,0-2.11,0l-5.28,0,1.45,1.1h0A1.5,1.5,0,0,0,350.82,491.6Z"/><path class="cls-1" d="M440.29,538.5c6,7.28,4.38-19.46,3.72-15.41C443.72,524.89,430.76,527,440.29,538.5Z"/><path class="cls-2" d="M439.23,539.56c2.07,2.36,4.7,2.05,5.88-.91,1.33-3.34,1.19-7.51,1.1-11,0-1.39.34-7.1-2.44-6.38-.72.19-.73.68-1.13,1.14s.44-.14-.51.45a27.21,27.21,0,0,0-4.11,2.7c-4.73,4.24-2.16,9.82,1.21,14,1.21,1.5,3.32-.63,2.12-2.13-1.61-2-3.84-5-2.78-7.75.59-1.54,2.08-2.5,3.43-3.32a12.06,12.06,0,0,0,2.84-1.82,2.12,2.12,0,0,0,.65-1.21c0-1-2.37-.77-2.64,0-.05.12.13.35.1.49-.21,1,.22,2.53.25,3.6.05,1.77,0,3.54-.07,5.31a19.88,19.88,0,0,1-.7,4.54c-.43,1.42-.2,1.18-1.08.18C440.08,536,438,538.11,439.23,539.56Z"/><rect class="cls-3" width="547" height="877"/></g></g></svg>