<svg xmlns="http://www.w3.org/2000/svg" viewBox="0 0 547 877"><defs><style>.cls-1{fill:#f6d6d3;}.cls-2{fill:#f7e4d2;}.cls-3{fill:#f6992a;}.cls-4{fill:#31d9c0;}.cls-5{fill:#f5e330;}.cls-6{fill:#fff;}.cls-7{fill:#ee4e74;}.cls-8{fill:none;}</style></defs><title>1_sprinkles</title><g id="Layer_2" data-name="Layer 2"><g id="Layer_1-2" data-name="Layer 1"><path class="cls-1" d="M260.41,562.37l-7-.25A23.7,23.7,0,0,1,260.41,562.37Z"/><path class="cls-2" d="M260.41,562.37l-7-.25A23.7,23.7,0,0,1,260.41,562.37Z"/><path class="cls-3" d="M209.47,535.5a40.1,40.1,0,0,1,12.05,6c3.13,2.27,6.13-2.94,3-5.18a45.38,45.38,0,0,0-13.49-6.6c-3.7-1.11-5.29,4.68-1.59,5.79Z"/><path class="cls-4" d="M226.42,512.66a72.48,72.48,0,0,0,10.64-10.52c2.44-3-1.79-7.23-4.24-4.25a72.61,72.61,0,0,1-10.65,10.53c-1.27,1-1,3.17,0,4.24a3.08,3.08,0,0,0,4.25,0Z"/><path class="cls-5" d="M273.08,532.38a40.47,40.47,0,0,0,17.07,4.76c3.86.21,3.85-5.79,0-6a33.42,33.42,0,0,1-14-3.94c-3.4-1.83-6.43,3.35-3,5.18Z"/><path class="cls-6" d="M321.33,494.13l12-7.74c3.24-2.08.23-7.27-3-5.18l-12,7.74c-3.24,2.08-.23,7.28,3,5.18Z"/><path class="cls-7" d="M275.1,499.42A46,46,0,0,1,277.93,489c.62-1.52-.66-3.28-2.09-3.69a3.06,3.06,0,0,0-3.69,2.09,45.63,45.63,0,0,0-2.84,10.38,3.1,3.1,0,0,0,2.1,3.69c1.41.41,3.44-.49,3.69-2.09Z"/><path class="cls-4" d="M391.93,537.93l19.28-5.73c3.69-1.1,2.12-6.89-1.6-5.79l-19.27,5.73c-3.7,1.1-2.12,6.89,1.59,5.79Z"/><path class="cls-7" d="M227.72,466.57a20.44,20.44,0,0,1,9.91,8c2.11,3.21,7.31.21,5.18-3a27.25,27.25,0,0,0-13.5-10.74c-3.62-1.36-5.18,4.44-1.59,5.78Z"/><path class="cls-6" d="M197.81,486.72a8.08,8.08,0,0,1-.75,9.32c-2.51,2.91,1.72,7.17,4.24,4.24A14.25,14.25,0,0,0,203,483.7c-1.93-3.35-7.12-.33-5.18,3Z"/><path class="cls-4" d="M130.15,522a21.72,21.72,0,0,1,8.71-12.44c3.16-2.17.16-7.37-3-5.18a28.1,28.1,0,0,0-11.46,16c-1,3.74,4.78,5.33,5.78,1.6Z"/><path class="cls-7" d="M353,512.91l9.89,1.45a3.1,3.1,0,0,0,3.69-2.09c.4-1.41-.5-3.46-2.1-3.69l-9.89-1.45a3.1,3.1,0,0,0-3.69,2.09c-.4,1.41.49,3.46,2.1,3.69Z"/><path class="cls-5" d="M293.79,464.66a47.84,47.84,0,0,0-.56,10.69c.25,3.83,6.26,3.86,6,0a41.25,41.25,0,0,1,.34-9.09,3.09,3.09,0,0,0-2.09-3.69c-1.43-.41-3.44.49-3.69,2.09Z"/><path class="cls-4" d="M311.4,520.11a19.15,19.15,0,0,1,6.51,7c1.87,3.37,7.06.35,5.18-3a25.38,25.38,0,0,0-8.66-9.11c-3.27-2.07-6.28,3.12-3,5.18Z"/><path class="cls-3" d="M398.37,498.24a11.66,11.66,0,0,1,9.12,6.86,3.1,3.1,0,0,0,3.69,2.09c1.41-.37,2.71-2.19,2.09-3.69a18,18,0,0,0-14.9-11.26c-3.83-.44-3.8,5.56,0,6Z"/><path class="cls-5" d="M445,532.46a16.53,16.53,0,0,1,10.39.76c3.52,1.49,6.58-3.68,3-5.18a23.37,23.37,0,0,0-15-1.37c-3.75.91-2.16,6.69,1.6,5.79Z"/><path class="cls-6" d="M101.62,524.28q1.55,7.85,3.83,15.51c1.1,3.69,6.89,2.12,5.78-1.59q-2.28-7.68-3.83-15.51c-.75-3.79-6.53-2.19-5.78,1.59Z"/><path class="cls-3" d="M165.12,498.07a11.83,11.83,0,0,0,8.38-13.62c-.68-3.8-6.46-2.19-5.79,1.59a5.72,5.72,0,0,1-4.18,6.25c-3.72,1-2.14,6.81,1.59,5.78Z"/><path class="cls-7" d="M187.77,546.54c2.74-1.26,5.71,1.2,6.13,3.82.27,1.61,2.25,2.48,3.69,2.1a3.07,3.07,0,0,0,2.1-3.69c-1.11-6.81-9-10.14-14.95-7.41-3.51,1.61-.46,6.78,3,5.18Z"/><path class="cls-4" d="M357.69,479.89A19.28,19.28,0,0,1,363.17,491c.56,3.81,6.34,2.19,5.79-1.6a24.57,24.57,0,0,0-7-13.78c-2.73-2.74-7,1.5-4.24,4.24Z"/><path class="cls-5" d="M146.9,542.76a27.6,27.6,0,0,1,12.83-12c3.49-1.63.45-6.8-3-5.18a32.9,32.9,0,0,0-15,14.13c-1.84,3.4,3.34,6.43,5.18,3Z"/><rect class="cls-8" width="547" height="877"/></g></g></svg>