<svg xmlns="http://www.w3.org/2000/svg" viewBox="0 0 547 877"><defs><style>.cls-1{fill:#f2bc6d;}.cls-2{fill:#5b2a11;}.cls-3{fill:none;}</style></defs><title>2_almonds</title><g id="Layer_2" data-name="Layer 2"><g id="Layer_1-2" data-name="Layer 1"><path class="cls-1" d="M100.5,318.5h0c-1,2.64-1.59,6.12.61,7.91a3.82,3.82,0,0,0,3.38.74,10.75,10.75,0,0,0,5.75-4.29C121.47,307,105.78,304.9,100.5,318.5Z"/><path class="cls-2" d="M99.05,318.1c-1.53,3.93-1.39,10.46,4.26,10.66,5.41.19,9.33-6,11.19-10.3,1.14-2.67,2.06-6.39-.12-8.82-1.82-2-4.76-1.92-7.1-.95-4,1.69-6.65,5.48-8.23,9.41-.72,1.79,2.18,2.57,2.9.8,1.19-3,3.22-6,6.2-7.33,1.43-.66,3.69-1.09,4.38.76,1.13,3-1.79,7.25-3.4,9.5-1.28,1.79-4.63,5.34-7,3.41-1.81-1.45-.84-4.55-.14-6.34S99.75,316.32,99.05,318.1Z"/><path class="cls-1" d="M185,289.46c1.74-1.68,4.4-3.4,6.33-2a4.52,4.52,0,0,1,1.43,3.43c.38,6.11-3.31,12.05-8.52,15.27h0c-4.65,2.87-11.05,4.35-16,2.53C172.31,301.53,179.08,295.2,185,289.46Z"/><path class="cls-2" d="M186.09,290.52l5.07-.48a9.05,9.05,0,0,1,0,3.48,13.23,13.23,0,0,1-1,3.64,16.55,16.55,0,0,1-5.63,7,18.39,18.39,0,0,1-15.85,3.1l.9,2.2c4.31-7.32,10.47-13.13,16.53-19,1.4-1.35-.73-3.47-2.12-2.12-6.25,6-12.56,12-17,19.57a1.52,1.52,0,0,0,.89,2.21c9.4,2.81,20.47-2.19,24.7-11,1.52-3.16,2.91-8.39.78-11.61-2.5-3.8-6.76-1.4-9.37.86C182.51,289.66,184.64,291.77,186.09,290.52Z"/><path class="cls-1" d="M259.35,298.22c2.79-.42,4.65-2.85,5.24-5.64a8.55,8.55,0,0,0-.63-5.51h0C251.41,262.08,237.57,301.48,259.35,298.22Z"/><path class="cls-2" d="M259.75,299.67c3.73-.77,6.05-4.13,6.46-7.79.38-3.49-1.22-6.58-3.19-9.35-2.15-3-5.54-6.19-9.58-5.08-6.68,1.84-8.54,12-5.74,17.42,2.34,4.53,7.4,5.44,12.05,4.8,1.9-.27,1.09-3.16-.8-2.9-2.87.4-6.2.07-8.06-2.43a9.39,9.39,0,0,1-1.29-7.11c.74-4.26,4.3-9.37,8.73-5.56a18,18,0,0,1,4.09,5.67c1.68,3.43.78,8.56-3.47,9.43C257.06,297.16,257.86,300.05,259.75,299.67Z"/><path class="cls-1" d="M336.29,290.72h0c1.42-2.37,3.22-4.87,5.92-5.4a5.59,5.59,0,0,1,3.92.77,6.8,6.8,0,0,1,2.63,2.84,9.74,9.74,0,0,1-.05,7.81C344,308.53,328.16,304.24,336.29,290.72Z"/><path class="cls-2" d="M337.58,291.47c1.05-1.73,2.36-3.83,4.37-4.53,3.66-1.26,6.16,2.76,6.1,5.87-.06,3.53-2.35,7.45-5.7,8.81-2,.79-4.5.71-5.91-1-2.15-2.66-.3-6.63,1.14-9.12A1.5,1.5,0,0,0,335,290c-2.24,3.87-4.05,9.51-.32,13.13,2.92,2.84,7.58,2.41,10.75.25,4.77-3.24,7.47-10.69,4.25-15.85a7.65,7.65,0,0,0-8.51-3.44c-2.83.87-4.72,3.49-6.17,5.91A1.5,1.5,0,0,0,337.58,291.47Z"/><path class="cls-1" d="M299.23,314.68c1.28-3,3-6.33,6.15-7,4.81-1.09,8.43,5.22,7.17,10s-5.25,8.2-8.41,12h0c-3.55,4.25-6.34,8.87-11.36,11.49C289.05,333.09,296,322.12,299.23,314.68Z"/><path class="cls-2" d="M300.53,315.44c1.1-2.47,3-7.15,6.74-6.33,2.37.52,3.91,3.95,4,6,.23,4.17-3.19,7.74-5.74,10.59-4.32,4.84-7.8,10.73-13.53,14.05l2.2.9c-3.36-8.56,2.93-17.64,6.31-25.25.77-1.75-1.81-3.28-2.59-1.52-3.7,8.34-10.31,18.15-6.61,27.56a1.52,1.52,0,0,0,2.2.9c5.42-3.14,8.63-8.23,12.64-12.85,3.43-3.94,8-8.13,8.11-13.75.08-3.87-2.19-8.52-6.21-9.56-5.21-1.34-8.34,3.71-10.13,7.7C297.15,315.67,299.74,317.2,300.53,315.44Z"/><path class="cls-1" d="M308.77,261.2c4.11,3.5,1.63,10.15-1.1,14.8h0c-3.7,6.29-8.08,13.5-15.49,15.58C292.53,285.83,295.24,249.68,308.77,261.2Z"/><path class="cls-2" d="M307.71,262.26c4.36,4.58-.48,11.69-3.14,16-3.17,5.12-6.87,9.93-12.79,11.89l1.9,1.45c.38-6,3-38.18,14-29.32,1.49,1.2,3.62-.91,2.12-2.12-15.53-12.47-18.61,22.95-19.15,31.44a1.51,1.51,0,0,0,1.9,1.44c7.64-2.53,12.13-9,16-15.67,3.05-5.22,6-12.15,1.22-17.21C308.49,258.74,306.37,260.86,307.71,262.26Z"/><path class="cls-1" d="M390.14,297.63a6.57,6.57,0,0,1-1.42-3.52c0-2.45,2.53-4.32,5-4.37s4.72,1.22,6.74,2.61h0c6.83,4.72,13.39,11.93,15.91,19.9C405.86,311.52,396.2,306.56,390.14,297.63Z"/><path class="cls-2" d="M391.43,296.87l-.68-1.1c.12-3.88,1.54-5.22,4.26-4a9,9,0,0,1,4.05,1.51A41.44,41.44,0,0,1,405,298a37.06,37.06,0,0,1,9.92,14.7l1.44-1.9c-10.09-.9-19-5.58-24.92-13.88-1.11-1.56-3.71-.06-2.59,1.51,6.6,9.26,16.27,14.37,27.51,15.37a1.51,1.51,0,0,0,1.45-1.9c-3.16-9-10.43-18.07-19.14-22.33-6.67-3.27-14.33,1.63-9.82,8.86C389.86,300,392.46,298.52,391.43,296.87Z"/><path class="cls-1" d="M136.93,303.76a3.3,3.3,0,0,0,.82.53h0c4.65,2.16,6.64-3.89,2.3-5.29C136.63,297.92,132.53,299.91,136.93,303.76Z"/><path class="cls-2" d="M135.87,304.82c2,1.58,5,2.11,6.9.14a4.4,4.4,0,0,0-.09-6.07,6.63,6.63,0,0,0-7.35-1,3.33,3.33,0,0,0-1.82,2.89c0,1.64,1.21,3,2.36,4.06,1.42,1.29,3.55-.82,2.12-2.12-.52-.47-1.42-1.21-1.48-1.95a.12.12,0,0,1,.05-.09,1.47,1.47,0,0,1,.38-.25,3.67,3.67,0,0,1,3.62.6,1.39,1.39,0,0,1,.4.92,1.21,1.21,0,0,1-.26.84,1.15,1.15,0,0,1-.9.48,2.69,2.69,0,0,1-1.81-.55,1.55,1.55,0,0,0-2.12,0A1.5,1.5,0,0,0,135.87,304.82Z"/><path class="cls-1" d="M226.37,306.47c5.72-6.15.94-14.84-6.19-8.09C214,304.21,220.4,312.88,226.37,306.47Z"/><path class="cls-2" d="M227.43,307.53c2.52-2.83,4.22-7.34,1.88-10.82s-6.81-2.26-9.59.07c-3.15,2.65-4.87,7.35-2.29,11s7.2,2.62,10-.24c1.35-1.38-.77-3.51-2.12-2.12-1.6,1.63-4.21,2.82-5.64.32s.24-5.24,2.17-6.82c1.45-1.2,4.06-2.45,5.18-.2s-.19,5-1.71,6.7C224,306.84,226.14,309,227.43,307.53Z"/><path class="cls-1" d="M64.21,342.23a16.58,16.58,0,0,0,3.72-13.6C48.46,328.6,57.47,350.36,64.21,342.23Z"/><path class="cls-2" d="M65.28,343.29a18.76,18.76,0,0,0,4.1-15.06,1.51,1.51,0,0,0-1.45-1.1c-6.9.08-14.59,3.79-13.11,11.9.94,5.15,6.34,9,10.46,4.26,1.26-1.45-.85-3.58-2.13-2.12-2.64,3-5.14-.2-5.47-3.2-.65-5.9,5.48-7.78,10.25-7.84L66.49,329a15.43,15.43,0,0,1-3.34,12.14C62,342.67,64.08,344.81,65.28,343.29Z"/><path class="cls-1" d="M147,333.68a15,15,0,0,0,11.83-12.41c.23-1.65.06-3.57-1.25-4.61h0C148.54,309.43,147.22,333.63,147,333.68Z"/><path class="cls-2" d="M147.38,335.12c6.64-1.46,12.55-7.24,13-14.27.24-4-3.26-8.4-7.6-6.71-3.47,1.35-4.78,6-5.59,9.27A63.83,63.83,0,0,0,146,329.7c-.11.83-.26,1.68-.32,2.53,0,.42-.31,1.24,0,.69a1.5,1.5,0,0,0,2.59,1.52c.71-1.25.56-3.51.76-4.88a38.6,38.6,0,0,1,2.18-9.07c.88-2.11,2.72-5.12,5.21-2.83s.14,6.93-1.35,9.06a13.82,13.82,0,0,1-8.49,5.51C144.69,332.65,145.49,335.54,147.38,335.12Z"/><path class="cls-1" d="M156.93,282.8h0c-.67,4.34,4.25,8.46,8.41,7.06C179,285.3,159.08,268.71,156.93,282.8Z"/><path class="cls-2" d="M155.48,282.4c-.71,4.66,3.29,9.11,8,9.23,3.2.09,7.12-2.11,8-5.37,1.36-5.21-4.59-10.58-9.51-10.52-3.78.05-5.84,3.25-6.41,6.66-.32,1.89,2.57,2.7,2.89.8.38-2.3,1.42-4.79,4.16-4.43a7.85,7.85,0,0,1,5.18,3.51c1.14,1.74,1.24,3.69-.53,5a5.51,5.51,0,0,1-5.22,1c-1.94-.73-3.93-2.9-3.59-5.12C158.66,281.31,155.77,280.49,155.48,282.4Z"/><path class="cls-1" d="M215.49,278.76h0a2.94,2.94,0,0,0-.15,2.59c.52.83,1.69.92,2.68.91,2.39,0,4.89,0,7-1.12s3.8-3.53,3.14-5.83C226.34,268.79,216.75,275.54,215.49,278.76Z"/><path class="cls-2" d="M214,278.36c-2.16,5.52,4.07,5.68,7.79,5.22,4.39-.55,9.48-4.14,7.63-9.19-2.65-7.27-13.18-1-15.27,3.61-.79,1.75,1.8,3.28,2.59,1.52,1.14-2.54,5.2-5.66,8.09-5.44,3.25.24,1.66,4.5-.26,5.59-1.16.66-8.84,2.45-7.68-.51C217.64,277.36,214.74,276.58,214,278.36Z"/><path class="cls-1" d="M180.22,341.51c-.75,2.65-.88,6.47,1.8,7.12h0c6.82,1.65,12.28-15.42,8.15-20.42C183.11,319.66,181.63,336.56,180.22,341.51Z"/><path class="cls-2" d="M178.78,341.11c-.67,2.72-1.14,6.76,1.69,8.49,1.9,1.16,4.28.6,6-.58,4.93-3.35,7.16-11.56,6.53-17.21-.43-3.75-4.58-9.86-8.82-6.55s-4.16,11.14-5.41,15.85a1.5,1.5,0,0,0,2.89.79c.84-3.16,1.24-6.43,2.16-9.58.36-1.23.9-3.95,2.11-4.62,1.65-.92,3.23,1.4,3.76,2.81,1.36,3.64-.16,8.72-1.82,12-.79,1.57-2,3.72-3.72,4.41-3.27,1.29-3-2.91-2.49-5.05C182.13,340,179.23,339.23,178.78,341.11Z"/><path class="cls-1" d="M377.85,308.46h0c-2.81-1.89-7-2.71-9.3-.2-2,2.2-1.26,5.89.76,8.05s4.94,3.2,7.74,4.16a15.7,15.7,0,0,0,6.52,1.21C396.65,320.35,380.53,310.27,377.85,308.46Z"/><path class="cls-2" d="M378.6,307.17c-5-3.4-13.73-2.12-12.61,5.53.51,3.49,3.09,5.94,6.14,7.44,3.7,1.82,8.26,3.49,12.42,2.92,4.44-.61,7.16-3.57,4.17-7.63-2.57-3.48-6.58-5.89-10.12-8.26-1.61-1.08-3.11,1.52-1.51,2.59,1.77,1.18,11.42,6.93,9.85,9.42-1,1.64-5.52,1-6.81.66a26.74,26.74,0,0,1-7.66-2.92c-2.41-1.47-5.23-5.25-2.54-7.78,1.95-1.84,5.2-.71,7.16.62C378.69,310.84,380.2,308.24,378.6,307.17Z"/><path class="cls-1" d="M383.64,275.51h0a4.3,4.3,0,0,0,1.71-.85c4.4-3.63.36-6.07-3.42-4.91C376.82,271.3,378.49,276.78,383.64,275.51Z"/><path class="cls-2" d="M384,277c2.6-.64,5.91-4,4.32-6.82-1.42-2.58-5.24-2.52-7.6-1.55s-4.07,3.16-3.21,5.68c.93,2.72,4,3.25,6.49,2.69,1.88-.42,1.08-3.31-.8-2.89-.93.21-2.37.29-2.84-.71a.91.91,0,0,1,0-.8,2.49,2.49,0,0,1,1.27-1.12c.88-.42,3.17-1,3.94,0s-1.72,2.44-2.4,2.61C381.37,274.52,382.16,277.42,384,277Z"/><path class="cls-1" d="M340.86,269.55c8.24,3.79,14.18-8,6-11.93C339.31,254,332,265.48,340.86,269.55Z"/><path class="cls-2" d="M340.11,270.84c4.25,1.8,9,.7,11.2-3.6a7.94,7.94,0,0,0-3.7-10.91,8.55,8.55,0,0,0-11.19,3.61c-2.43,4.25-.52,8.81,3.69,10.9,1.72.86,3.24-1.73,1.51-2.59-2.75-1.37-4.22-3.91-2.61-6.8a5.54,5.54,0,0,1,7.09-2.53c6.41,2.86,1.77,12-4.48,9.33C339.86,267.51,338.33,270.09,340.11,270.84Z"/><path class="cls-1" d="M429.38,287h0a2.68,2.68,0,0,1-.35-2.15c.42-1,1.75-1.14,2.82-1.08,11.56.66,24.06,9.21,26.85,20.72C446.43,300.77,435.76,300,429.38,287Z"/><path class="cls-2" d="M430.68,286.25c-.76-1.52,7.34.15,8.13.41a31.49,31.49,0,0,1,7.84,3.88,25.72,25.72,0,0,1,10.61,14.35L459.1,303c-11.43-3.39-22.42-5.25-28.42-16.79-.89-1.72-3.48-.2-2.59,1.51,6.4,12.31,17.92,14.53,30.22,18.18a1.51,1.51,0,0,0,1.84-1.85c-2.53-9.11-9.72-16-18.39-19.54-3.1-1.24-17.86-5.17-13.67,3.21C429,289.49,431.54,288,430.68,286.25Z"/><path class="cls-1" d="M460,338.56h0c2.17,1.21,5.3,1.76,6.83-.19.95-1.21.87-2.91.75-4.44C465.25,304.28,439.19,327,460,338.56Z"/><path class="cls-2" d="M459.22,339.86c2.61,1.45,6.47,2.12,8.65-.43s1.17-7,.61-10c-.75-4-2.39-8.88-6.31-10.83-6.33-3.14-12.16,3.81-11.65,9.83.44,5.19,4.38,9,8.7,11.47a1.5,1.5,0,0,0,1.51-2.59c-3-1.7-6-4.11-6.94-7.56a7.54,7.54,0,0,1,1.11-6.55,5.17,5.17,0,0,1,4.63-2.33,4.87,4.87,0,0,1,2.48,1.25,10.24,10.24,0,0,1,2.37,3.73,28.13,28.13,0,0,1,1.67,7.9c.12,1.46.44,3.71-1.31,4.32a5.43,5.43,0,0,1-4-.76C459,336.33,457.53,338.92,459.22,339.86Z"/><path class="cls-1" d="M273.48,317h0a4.36,4.36,0,0,0,1.86-1.07,5.38,5.38,0,0,0,1.67-3.23,7.31,7.31,0,0,0-8.71,3.08A5.81,5.81,0,0,0,273.48,317Z"/><path class="cls-2" d="M273.87,318.49a6.71,6.71,0,0,0,4.59-5.35,1.54,1.54,0,0,0-1-1.84c-4-1.1-8.13.13-10.4,3.77a1.54,1.54,0,0,0,.54,2.05,7.5,7.5,0,0,0,6.32,1.37c1.89-.43,1.09-3.32-.79-2.9a4.64,4.64,0,0,1-4-1.06l.54,2.05c1.56-2.5,4.28-3.13,7-2.39l-1.05-1.84a3.81,3.81,0,0,1-2.49,3.24A1.5,1.5,0,0,0,273.87,318.49Z"/><path class="cls-1" d="M270.55,269h0c.69,2.08,3.1,2.85,5.28,2.43a5.5,5.5,0,0,0,2.56-1.22C288.12,261.6,268,261.32,270.55,269Z"/><path class="cls-2" d="M269.1,269.41c1.34,4,6.75,4.55,9.83,2.28,1.86-1.37,4.19-3.94,3.53-6.48-1.13-4.27-7.89-3.64-10.79-2a5.18,5.18,0,0,0-2.57,6.19c.57,1.84,3.47,1.06,2.89-.8-1-3.11,3.76-4.06,6.19-3.46a3.78,3.78,0,0,1,1.25.59c.24.23.14.16.14.31a2.3,2.3,0,0,1-.23.78,6.53,6.53,0,0,1-3,2.9c-1.3.54-3.81.54-4.37-1.12C271.39,266.79,268.49,267.57,269.1,269.41Z"/><rect class="cls-3" width="547" height="877"/></g></g></svg>