<svg xmlns="http://www.w3.org/2000/svg" viewBox="0 0 547 877"><defs><style>.cls-1{fill:#f5e330;}.cls-2{fill:#ee4e74;}.cls-3{fill:#31d9c0;}.cls-4{fill:#f6992a;}.cls-5{fill:#fff;}.cls-6{fill:none;}</style></defs><title>2_sprinkles</title><g id="Layer_2" data-name="Layer 2"><g id="Layer_1-2" data-name="Layer 1"><path class="cls-1" d="M89.82,326.91l16.83-11.64c3.16-2.18.16-7.39-3-5.18L86.79,321.73c-3.15,2.19-.15,7.39,3,5.18Z"/><path class="cls-2" d="M159.93,307.62a25.48,25.48,0,0,1,14.69,7.2c2.77,2.69,7-1.55,4.24-4.25a32.23,32.23,0,0,0-18.93-8.95c-3.82-.48-3.79,5.53,0,6Z"/><path class="cls-3" d="M196.6,281.89a7.89,7.89,0,0,1,6.82-4.35c3.85-.1,3.86-6.1,0-6a14,14,0,0,0-12,7.32c-1.81,3.41,3.37,6.45,5.18,3Z"/><path class="cls-3" d="M226.86,298.2l11.36-3.75c3.65-1.2,2.09-7-1.59-5.79l-11.37,3.75c-3.65,1.2-2.08,7,1.6,5.79Z"/><path class="cls-2" d="M295.59,294.25a14.87,14.87,0,0,0,16.49,9.86c3.8-.56,2.18-6.34-1.6-5.78a8.71,8.71,0,0,1-9.1-5.67c-1.26-3.63-7.06-2.07-5.79,1.59Z"/><path class="cls-3" d="M303.7,336.33h9.46c3.86,0,3.87-6,0-6H303.7c-3.86,0-3.87,6,0,6Z"/><path class="cls-3" d="M341,258.1a17.49,17.49,0,0,1,11-1.25c3.76.78,5.37-5,1.59-5.79A24.42,24.42,0,0,0,338,252.92c-3.5,1.63-.46,6.8,3,5.18Z"/><path class="cls-4" d="M360.46,294.7H375.6c3.86,0,3.87-6,0-6H360.46c-3.86,0-3.86,6,0,6Z"/><path class="cls-5" d="M284.06,262l9.47,1.81c3.78.73,5.39-5.06,1.6-5.78l-9.48-1.82c-3.77-.72-5.39,5.06-1.59,5.79Z"/><path class="cls-2" d="M435.82,288.23l9.46,11.35c2.48,3,6.7-1.29,4.25-4.24L440.06,284c-2.47-3-6.7,1.29-4.24,4.24Z"/><path class="cls-5" d="M421.62,313l7.9-2.88a3.09,3.09,0,0,0,2.1-3.69,3,3,0,0,0-3.69-2.09l-7.9,2.87a3.09,3.09,0,0,0-2.1,3.69,3,3,0,0,0,3.69,2.1Z"/><path class="cls-1" d="M395,262.35a24.64,24.64,0,0,0,9.52,12.8c3.17,2.22,6.17-3,3-5.18a17.88,17.88,0,0,1-6.76-9.21c-1.19-3.66-7-2.09-5.79,1.59Z"/><path class="cls-3" d="M477.07,324.53a7.19,7.19,0,0,1,5.1,5.86,3,3,0,0,0,3.69,2.09,3.07,3.07,0,0,0,2.1-3.69,13.14,13.14,0,0,0-9.3-10.05c-3.71-1.07-5.3,4.71-1.59,5.79Z"/><path class="cls-2" d="M368,317.41h9.46c3.86,0,3.87-6,0-6H368c-3.86,0-3.86,6,0,6Z"/><path class="cls-4" d="M135.44,331.58l5.7-5.65c2.75-2.72-1.49-7-4.24-4.25l-5.7,5.65c-2.75,2.73,1.49,7,4.24,4.25Z"/><path class="cls-5" d="M132,294.12a7.61,7.61,0,0,0,9.73-2.78,3,3,0,0,0-5.18-3q-.3.44-.06.09c-.26.23-.28.27-.05.1a5.09,5.09,0,0,1-.5.3c.27-.1.24-.09-.1,0a3.39,3.39,0,0,1-.57.13c.32-.05.29-.06-.07,0s-.39,0-.07,0c-.34-.11-.37-.11-.11,0a3.09,3.09,0,0,0-4.1,1.08c-.75,1.27-.42,3.45,1.08,4.1Z"/><path class="cls-4" d="M235.58,272h11.36c3.86,0,3.86-6,0-6H235.58c-3.86,0-3.86,6,0,6Z"/><path class="cls-1" d="M263,308.17a26.79,26.79,0,0,0,13-9.33c1-1.3.19-3.35-1.08-4.11a3.07,3.07,0,0,0-4.1,1.08,19.78,19.78,0,0,1-9.38,6.58c-3.64,1.22-2.08,7,1.59,5.78Z"/><path class="cls-4" d="M332.66,281.77l5.71-7.54c1-1.29.21-3.35-1.07-4.1a3.09,3.09,0,0,0-4.11,1.07l-5.71,7.55c-1,1.29-.2,3.35,1.08,4.1a3.07,3.07,0,0,0,4.1-1.08Z"/><path class="cls-5" d="M44.87,359.3l6.23-13c1.67-3.47-3.5-6.51-5.18-3l-6.23,13c-1.66,3.46,3.51,6.51,5.18,3Z"/><rect class="cls-6" width="547" height="877"/></g></g></svg>