<svg xmlns="http://www.w3.org/2000/svg" viewBox="0 0 547 877"><defs><style>.cls-1{fill:#f2bc6d;}.cls-2{fill:#5b2a11;}.cls-3{fill:none;}</style></defs><title>3_almonds</title><g id="Layer_2" data-name="Layer 2"><g id="Layer_1-2" data-name="Layer 1"><path class="cls-1" d="M172.13,55.06c.25,2.83,3.49,5.46,5.93,4a6.41,6.41,0,0,0,2.17-2.93h0c2.32-4.89,6.23-10.67,6.75-15.91C179.93,39,171.52,48,172.13,55.06Z"/><path class="cls-2" d="M170.69,55.45c.92,4.61,6.37,7.61,9.71,3.37,1.68-2.13,2.74-5.07,4-7.46,1.79-3.42,3.49-6.89,4-10.75a1.54,1.54,0,0,0-1.45-1.9c-8.5-1-16.64,8.18-16.35,16.35.07,1.92,3.07,1.93,3,0-.24-6.68,6.43-14.13,13.35-13.35l-1.44-1.9c-.61,4.26-2.65,8-4.65,11.74-.67,1.26-1.29,2.55-2,3.81-.31.59-.66,1.69-1.22,2.06-2.24,1.49-3.79-1.07-4.13-2.76C173.2,52.77,170.31,53.57,170.69,55.45Z"/><path class="cls-1" d="M272.84,43h0a2.59,2.59,0,0,0-.6,2.14,13.28,13.28,0,0,0,4.36,9c2.92,2.62,6.9,3.82,9.85,6.41,2.62,2.3,4.83,5.83,8.31,5.85,3.25,0-3.36-17.33-5.22-19C286.89,45,275.63,40.45,272.84,43Z"/><path class="cls-2" d="M271.78,41.89c-2.62,2.33-.25,7.88,1.18,10.19,3.17,5.11,9.15,6.53,13.4,10.44,2,1.85,5.62,6.58,9.09,5.27,1.91-.72,1.76-3,1.56-4.65-.61-5-2.77-13-6.41-16.81-3.4-3.52-14-7.71-18.52-4.68-1.59,1.07-.1,3.67,1.51,2.59,3.16-2.12,11.56,1.52,14.16,3.68s3.69,6.45,4.72,9.56A32.17,32.17,0,0,1,294,63c.35,2.45.77,3.1-2.63.25-1-.87-1.88-2-2.86-2.87-2.28-2.14-4.84-3.44-7.5-5.06a18.49,18.49,0,0,1-4.36-3.3c-.95-1.07-4.38-6.55-2.72-8C275.34,42.72,273.21,40.6,271.78,41.89Z"/><path class="cls-1" d="M224.12,34.65h0c-1.65,2.7-3.08,6.24-1.31,8.86,2.06,3,6.83,2.37,10,.42,6.06-3.78,9.53-10.55,14.8-15.37,4.16-3.82,9.84-7,10.75-12.6.38-2.3-18.44,3.84-20.13,4.92A43.46,43.46,0,0,0,224.12,34.65Z"/><path class="cls-2" d="M222.83,33.9c-2.16,3.52-3.77,8.73,0,11.78,3.52,2.85,8.72,1,12-1.31,5.57-3.93,8.89-10.17,13.84-14.75,3.82-3.55,10-6.92,11-12.59,1.07-6.37-11.84-1.1-14.37-.31A39.86,39.86,0,0,0,222.83,33.9c-1.05,1.63,1.54,3.13,2.59,1.51,3.73-5.82,9.32-11.79,16-14.23a92.87,92.87,0,0,1,14.71-4.13c1.88-.36,1-.18,0,.9-1.62,1.69-2.7,3.74-4.56,5.35a76.26,76.26,0,0,0-8.66,8.1c-2.64,3.1-5,6.52-8.11,9.18-2,1.72-4.49,3.59-7.28,3.36-4.76-.4-3.93-5.41-2-8.53C226.43,33.76,223.83,32.25,222.83,33.9Z"/><path class="cls-1" d="M350.66,50.4c-2.87-5.08-9.35-6.59-15.1-7.61a3.87,3.87,0,0,0-3,.29,2.87,2.87,0,0,0-.85,2.8c.42,2.47,2.49,4.32,4.68,5.52s4.63,1.93,6.7,3.32a25,25,0,0,1,4.13,3.7l6.47,6.71h0C357.48,61.15,353,54.53,350.66,50.4Z"/><path class="cls-2" d="M352,49.65c-2.83-4.39-7.29-6.37-12.24-7.55-2.86-.68-7.66-2.28-9.22,1.36-1.66,3.84,2.19,7.53,5.14,9.23,3.47,2,6.59,2.91,9.56,5.8,2.56,2.48,5,5.14,7.44,7.7a1.51,1.51,0,0,0,2.12,0c4.62-4.85-.2-12-2.8-16.54a1.5,1.5,0,0,0-2.59,1.51c1.76,3.07,6.51,9.51,3.27,12.91h2.12c-2.78-2.89-5.45-6-8.43-8.68-2.35-2.11-5-3.22-7.83-4.62a17.18,17.18,0,0,1-2.42-1.32q-3.3-1.61-.91-5.21c.7-.32,3.09.59,3.75.75,4.13,1,8.06,2.47,10.45,6.17C350.4,52.78,353,51.28,352,49.65Z"/><path class="cls-1" d="M311.11,32.81c3.56.09,6.83-1.8,9.87-3.64h0c4.19-2.52,11.28-4.48,8.29-8.93-1.91-2.84-9.47-4-12.56-3.5C309.08,17.92,297.33,32.43,311.11,32.81Z"/><path class="cls-2" d="M311.11,34.31c4.67-.16,8.14-2.55,12.12-4.67,2.67-1.42,6.68-2.72,7.92-5.8,2.76-6.88-9.25-8.94-13.51-8.69-5.48.33-10.95,4.94-13.34,9.71-2.92,5.79,1.15,9.14,6.81,9.45,1.93.1,1.93-2.9,0-3s-4.62-.27-4.87-2.58c-.18-1.65,1.25-3.56,2.21-4.77,2.2-2.76,5.55-5.49,9.19-5.81,3.19-.28,15.19,2.17,8.75,6.43-1.94,1.28-4.15,2.15-6.16,3.3-2.94,1.66-5.65,3.31-9.12,3.43C309.19,31.37,309.18,34.37,311.11,34.31Z"/><path class="cls-1" d="M238.86,73.15c-1.13,3.2-1.56,7.37,1.13,9.45,2,1.53,4.92,1.15,7.11-.07A14.88,14.88,0,0,0,253.54,74a44.85,44.85,0,0,0,1.65-10.78,3.65,3.65,0,0,0-.2-1.86h0C250.72,52.59,239.81,70.41,238.86,73.15Z"/><path class="cls-2" d="M237.41,72.75c-1,3.23-1.67,7.31.74,10.14s6.66,2.58,9.7.93c3.39-1.83,5.65-5.32,6.92-8.85s3-10.42,1.59-14.18c-4.34-11.29-17.25,7.58-19,12-.7,1.8,2.2,2.58,2.89.79a30.43,30.43,0,0,1,3.82-6.3c1.52-2.09,4.12-5.95,6.85-6.58,5.08-1.18,1.83,10.82,1.12,12.94-1,3-2.88,6.17-5.75,7.63-2.66,1.36-5.93.81-6.75-2.6-.4-1.68.21-3.49.71-5.09C240.88,71.7,238,70.91,237.41,72.75Z"/><path class="cls-1" d="M132.85,66.69a6.38,6.38,0,0,0-1.12,3.13c0,2.12,2.05,3.8,4.15,4.08A11.43,11.43,0,0,0,142,72.56c3.18-1.44,6.31-3.29,8.28-6.16,2.18-3.18,2.65-7.18,3.07-11h0C143,55.31,138.5,57.24,132.85,66.69Z"/><path class="cls-2" d="M131.56,65.94c-4.14,7.47,3.78,10.89,10.1,8.37,8.94-3.56,12.15-9.67,13.19-18.91a1.5,1.5,0,0,0-1.5-1.5c-4.17,0-8.58.17-12.38,2.08-4.22,2.11-7,6-9.41,10-1,1.65,1.58,3.16,2.59,1.51,2.12-3.47,4.55-7.06,8.33-8.88,3.34-1.61,7.23-1.71,10.87-1.67l-1.5-1.5c-.59,5.21-1.5,10.05-6,13.32a22.22,22.22,0,0,1-5.72,3c-3.48,1.13-8.5.28-6-4.28C135.08,65.76,132.49,64.24,131.56,65.94Z"/><path class="cls-1" d="M401.86,61.74h0c-.83-2.1-1.5-4.85.22-6.32a4.39,4.39,0,0,1,3.75-.61c4.92,1,8.59,5.89,8.74,10.92.1,3.58-1.31,9.44-5.66,8.44C405.21,73.31,403,64.64,401.86,61.74Z"/><path class="cls-2" d="M403.31,61.34a10.74,10.74,0,0,1-.48-1.42c-.45-1.92-.57-2.26,1.18-3.12,2.25-1.11,4.64.55,6.22,2.21a11,11,0,0,1,2.32,10.72c-.61,1.94-2.07,3.77-4.22,2.44-1-.63-1.73-2.37-2.22-3.39-1.16-2.39-1.86-5-2.8-7.44-.68-1.79-3.58-1-2.89.8,1.55,4.09,2.75,11,7.16,13.12,5,2.36,7.85-3.13,8.35-7.18.75-5.92-2.44-12.11-8.17-14.25-6.33-2.36-9.63,2.59-7.34,8.31C401.12,63.91,404,63.13,403.31,61.34Z"/><path class="cls-1" d="M367.25,34.17a3.15,3.15,0,0,1,.58-2.35,3.28,3.28,0,0,1,2.35-.74A35.19,35.19,0,0,1,395,40.33a3.21,3.21,0,0,1,1.12,1.61c.23,1.12-.7,2.15-1.67,2.77-4.59,3-10.62,1.63-15.89.2h0C371.25,42.94,367.78,42.48,367.25,34.17Z"/><path class="cls-2" d="M368.75,34.17c.22-4.36,14.25.45,16.19,1.32a33.57,33.57,0,0,1,6.67,4c2,1.53,2.63,1.25,1.05,3.45-1.4,2-2.87,2-5.17,2-3.86,0-7.83-1.25-11.51-2.32-4.74-1.37-6.77-3.36-7.23-8.49-.17-1.91-3.17-1.92-3,0,.61,6.85,3.5,9.72,10,11.54,5.74,1.61,16.19,4.94,20.8-.84s-8.14-11.26-11.89-12.75c-4.71-1.86-18.45-6.32-18.88,2.05C365.65,36.1,368.65,36.09,368.75,34.17Z"/><path class="cls-1" d="M372.28,74.28c2.16-2,4.46-4.08,7.33-4.77s6.43.56,7.24,3.4c.47,1.64-.05,3.39.06,5.09a4,4,0,0,1-.25,2.6,3.14,3.14,0,0,1-2.61.89h0c-4.33.08-14.82,2.14-17.4-1.71A59.71,59.71,0,0,1,372.28,74.28Z"/><path class="cls-2" d="M373.34,75.34c2.48-2.27,9.8-8.08,12.07-2,.21.56.43,4.92.07,5.6-.74,1.42-1.69,1-2.83,1.15-3.89.54-12.11,2.09-14.94-1.34v2.12a73.06,73.06,0,0,1,5.63-5.5c1.44-1.29-.69-3.41-2.12-2.12a71.26,71.26,0,0,0-5.63,5.5,1.55,1.55,0,0,0,0,2.12c2.77,3.36,8.23,2.89,12.1,2.63,2.76-.19,8.9.48,10.41-2.47.91-1.77.61-5.36.39-7.24a6.26,6.26,0,0,0-3.29-5c-5.2-2.85-10.27,1-14,4.42C369.79,74.52,371.92,76.64,373.34,75.34Z"/><path class="cls-1" d="M288,8.24h0a8.32,8.32,0,0,1,3.1,7.44c-.58,4.74-8.33,10.68-11.91,5.48C276.48,17.2,284.4,5.44,288,8.24Z"/><path class="cls-2" d="M287,9.3a6.47,6.47,0,0,1,.83,9.71c-1.56,1.73-6.39,4.65-7.56.79-.67-2.19,1.14-5.18,2.3-6.88.76-1.11,3.13-4.44,4.73-3.38S290.38,8,288.78,7c-3.42-2.27-7.12,1.92-8.84,4.46-2,2.95-4.2,7.77-1.64,11,3.19,4,8.68,1.91,11.61-1.29,3.68-4,3.71-10.43-.83-13.95C287.57,6,285.44,8.12,287,9.3Z"/><path class="cls-1" d="M212.58,63.24c6.85-1.15,4.65-8.81-1.5-8C203.94,56.18,205.07,64.5,212.58,63.24Z"/><path class="cls-2" d="M213,64.68c3.31-.63,6.21-3.33,5.07-6.93-1.08-3.42-4.93-4.55-8.14-3.82-3,.69-5.74,3.35-5,6.65.83,3.71,4.81,4.58,8.07,4.1,1.9-.27,1.1-3.16-.8-2.89-1.55.23-4,0-4.35-1.89-.35-1.72,1.47-2.76,2.88-3.08,1.61-.35,3.79,0,4.45,1.73.74,2-1.39,2.94-3,3.24C210.29,62.16,211.09,65.05,213,64.68Z"/><path class="cls-1" d="M202.65,30.31h0a2.11,2.11,0,0,0,1.54.58c3.53.22,11.15-4.58,6.9-8C207.39,19.82,199.67,26.79,202.65,30.31Z"/><path class="cls-2" d="M201.59,31.37c2.27,2.68,7.4,0,9.46-1.59,2.66-2.09,4-5.67.95-8.12-4.87-3.85-14.7,4.14-10.65,9.4,1.16,1.51,3.77,0,2.59-1.51-2-2.56,3.31-6.9,5.81-5.78,2.13.94.52,2.86-.68,3.77-.74.56-4.4,2.84-5.36,1.7C202.46,27.77,200.34,29.9,201.59,31.37Z"/><path class="cls-1" d="M322.84,66.09a3.26,3.26,0,0,0-.45,3.65l.12.17a4.37,4.37,0,0,0,1.59,1.23h0C337.87,78.21,329.15,58.59,322.84,66.09Z"/><path class="cls-2" d="M321.54,65.33a4.6,4.6,0,0,0,.29,6.07,12.24,12.24,0,0,0,4.7,2.38c2,.61,4.58.76,5.83-1.23,2-3.14-1.09-7.8-4-9.15A5.45,5.45,0,0,0,321.78,65c-1.26,1.45.86,3.58,2.12,2.12a8.71,8.71,0,0,1,.81-.81s.31-.19.4-.24a2.39,2.39,0,0,1,.22-.12c-.18.09-.13,0,0,0l.5-.13c-.34.07,0,0,.14,0l.43,0c-.43,0,.11,0,.23.07l.41.14c-.37-.15.1.06.19.11l.38.24.19.13c.08.06-.19-.17.05,0a9.13,9.13,0,0,1,.7.69c.07.08.35.43.14.16a5.85,5.85,0,0,1,.34.48q.24.39.45.81c.11.22.14.33.1.2,0,.16.11.31.16.47s.07.31.12.46c.08.31,0,.17,0,.1,0,.14,0,.28,0,.43s-.1.59,0,.14c0,.11,0,.22-.08.33-.11.27,0-.07,0,0s-.07.14-.08.14.12.08.09-.11a1.1,1.1,0,0,1-.11.12c-.2.09.13-.22,0,0s-.4.18,0,0c-.14.05-.28.08-.42.12s.29,0,.08,0l-.23,0c-.22,0-.42,0-.64,0s.23,0,0,0l-.46-.09-.74-.2a14.07,14.07,0,0,1-1.8-.72A4.11,4.11,0,0,1,323.69,69a1.94,1.94,0,0,1,.44-2.13,1.51,1.51,0,0,0-.54-2.06A1.53,1.53,0,0,0,321.54,65.33Z"/><path class="cls-1" d="M255.83,33.83h0c-.21.88-.16,2,.62,2.44a2.35,2.35,0,0,0,1.26.2c.37,0,.74,0,1.12-.08C272.89,34.82,257.69,26.17,255.83,33.83Z"/><path class="cls-2" d="M254.38,33.43c-.42,1.73,0,3.91,2,4.42a7.59,7.59,0,0,0,2.81,0c.82-.1,1.64-.22,2.44-.4,1.73-.4,4.12-1.25,4.53-3.24.36-1.73-.88-3.16-2.3-4a8,8,0,0,0-5.08-.93,5.38,5.38,0,0,0-4.4,4.12c-.48,1.87,2.42,2.67,2.89.8.05-.2.13-.4.18-.59s0,0,0,.09.08-.17.13-.26.16-.25.23-.38-.24.24,0,0c.07-.07.13-.15.19-.22s.51-.37.1-.11l.34-.22.36-.18c-.45.23.06,0,.2,0l.43-.1c.41-.09-.32,0,.09,0a6.41,6.41,0,0,1,1,0h.17c.31,0-.38-.07-.07,0l.4.07c.32.08.62.18.93.28s-.28-.15.07,0l.34.17.38.23.12.08c.31.19-.2-.19,0,0s.3.31.46.45-.19-.33-.09-.11a1.1,1.1,0,0,0,.09.14c.17.36-.09-.31,0,0a.5.5,0,0,1,0,.13c0,.24,0-.22,0-.23s0,.53,0,.11,0,.11-.05.1.16-.39.08-.21l-.12.2c-.1-.06.31-.31.07-.11l-.1.1-.16.14c.29-.28.2-.13.08-.07s-.27.17-.41.24l-.21.11c-.34.18.22-.07-.08,0a17.8,17.8,0,0,1-3.34.77c-.44,0-.87.09-1.31.11h-.56s.18,0,.13.07l.05.09c-.08-.15-.1-.16,0,0,0,0-.08-.44-.06-.19a3.65,3.65,0,0,1,0-.47c0,.28,0-.2,0-.21C257.73,32.35,254.83,31.55,254.38,33.43Z"/><path class="cls-1" d="M114.7,80.37c13.22-10.35-7.79-10.38-5.8,1A5.58,5.58,0,0,0,114.7,80.37Z"/><path class="cls-2" d="M115.76,81.43c2.31-1.83,7.77-7.24,3-9.67-3.1-1.57-7.42.24-9.49,2.7a8.73,8.73,0,0,0-1.79,7.31,1.47,1.47,0,0,0,1,1,7.21,7.21,0,0,0,7-1.16c1.53-1.14,0-3.74-1.52-2.59a4.52,4.52,0,0,1-4.64.86l1,1a5.56,5.56,0,0,1,.86-4.17,6.67,6.67,0,0,1,2.8-2.13,6.86,6.86,0,0,1,.91-.28l.48-.11c.26,0,.22,0,.21,0a8,8,0,0,1,.84,0c.08,0,.48,0,.29,0s.18,0,.25.05l.36.11c.09,0-.27-.1,0,0s.27,0,0,0c0,0,.34.29.14.1a.29.29,0,0,1,0,.25,4.09,4.09,0,0,1-1,1.74,19.41,19.41,0,0,1-3,2.8C112.13,80.5,114.26,82.61,115.76,81.43Z"/><path class="cls-1" d="M170.31,72.49h0a5.76,5.76,0,0,0,1,5.2c3,4,8.89,2.24,8.25-3C179.08,70.54,172.08,67.29,170.31,72.49Z"/><path class="cls-2" d="M168.86,72.09A7.41,7.41,0,0,0,174,81.18,5.72,5.72,0,0,0,181,76.69c1.28-6.91-9.28-12.07-12.16-4.6-.69,1.8,2.21,2.58,2.9.79,1.46-3.8,6.7,0,6.36,3-.56,4.92-7.89,1.5-6.36-3C172.38,71.05,169.48,70.27,168.86,72.09Z"/><path class="cls-1" d="M161.91,43.37h0a6.35,6.35,0,0,0,5.24-2.62,11.59,11.59,0,0,0,2.41-5.39C161.93,29.09,154.55,42.76,161.91,43.37Z"/><path class="cls-2" d="M161.91,44.87c4.94.4,8.32-4.89,9.1-9.12a1.51,1.51,0,0,0-.39-1.46,7.82,7.82,0,0,0-11.87,1.85c-2.37,3.54-1.56,8.21,3.16,8.73,1.92.21,1.91-2.79,0-3-2.48-.27-1.4-3.13-.42-4.44a4.72,4.72,0,0,1,7-1L168.12,35c-.54,2.94-2.6,7.2-6.21,6.91C160,41.71,160,44.71,161.91,44.87Z"/><path class="cls-1" d="M443,78.89h0a5.41,5.41,0,0,0,2.13,1.82,12.39,12.39,0,0,0,5,2c5.45.5,5-4.76,1.86-7.26C449.43,73.49,440.12,73.75,443,78.89Z"/><path class="cls-2" d="M441.67,79.65c1.12,2,4.19,3.44,6.27,4.14a7.08,7.08,0,0,0,5.94-.32c3.11-2,1.87-6.37-.31-8.55-3.79-3.79-15.55-2.4-11.9,4.73.88,1.72,3.47.2,2.59-1.51-1.59-3.1,5.3-2.52,6.75-1.49,1,.71,2.53,3,1.43,4.15-.83.89-2.75.43-3.7.1-1.32-.46-3.77-1.49-4.48-2.76C443.33,76.45,440.73,78,441.67,79.65Z"/><path class="cls-1" d="M431.23,55.39a6.42,6.42,0,0,1,4-3.16c2.45-.51,5,1.13,6.2,3.31a14.73,14.73,0,0,1,1.42,7.29,3,3,0,0,1-.4,1.81,2.84,2.84,0,0,1-1.43.86h0C433.36,68.05,426.22,63.83,431.23,55.39Z"/><path class="cls-2" d="M432.53,56.15c2.58-3.95,6.89-2.43,8.21,1.7a11.2,11.2,0,0,1,.57,4.56c-.27,1.81-1.23,1.92-2.79,2.17-2,.34-4.66.25-6.28-1.24-2.14-2-.9-5.06.29-7.19.94-1.69-1.65-3.2-2.59-1.51-2,3.61-3,8.36.72,11.26,3,2.36,8.27,2.47,11.61.69,4-2.11,1.92-9.94-.23-12.75-3.5-4.57-9.12-3.77-12.1.8C428.88,56.26,431.47,57.76,432.53,56.15Z"/><path class="cls-1" d="M350.81,22h0c-1.26,1.21-1.64,3.5-.34,4.67a4.48,4.48,0,0,0,1.81.87,10.55,10.55,0,0,0,6.28.28c2-.69,3.7-2.7,3.39-4.81C361.24,18.41,353.11,19.82,350.81,22Z"/><path class="cls-2" d="M349.75,21a5.24,5.24,0,0,0-1.5,4.67c.43,2.05,2.13,3,4,3.48,4.13,1.15,9.92.58,11.08-4.44,1.8-7.76-9.88-7-13.59-3.71-1.46,1.28.67,3.39,2.12,2.12,1.66-1.46,5.94-2.49,7.85-1,2.13,1.63-.56,4.16-2.33,4.54s-8.59-.58-5.52-3.52C353.26,21.75,351.14,19.63,349.75,21Z"/><path class="cls-1" d="M311.72,54.3a7.87,7.87,0,0,0,5.18-1.13,8.72,8.72,0,0,0,4-4.18h0C327.55,32.15,295.77,51.37,311.72,54.3Z"/><path class="cls-2" d="M311.72,55.8c5.92.76,11-4.41,11.56-10,.26-2.74-1.25-5-4.09-5.1s-5.67,1.27-7.92,2.77-4.67,3.53-5.4,6.18c-1,3.64,2.4,5.54,5.45,6.13,1.89.37,2.7-2.52.8-2.89a6.73,6.73,0,0,1-2.95-1.08,1.11,1.11,0,0,1-.48-1.05c.27-1.57,1.91-3.08,3.23-4.09a15.3,15.3,0,0,1,5.68-2.82,4.72,4.72,0,0,1,2-.07c.39.1.58.25.68.91.69,4.41-4.31,8.69-8.59,8.14C309.81,52.56,309.83,55.56,311.72,55.8Z"/><path class="cls-1" d="M426.45,85.8c-1.89.08-4.22,1.31-3.84,3.16.24,1.2,1.49,1.86,2.61,2.35l2.93,1.31c2.21,1,5.16,1.82,6.76,0h0C438.72,88.26,428.68,85.7,426.45,85.8Z"/><path class="cls-2" d="M426.45,84.3c-3.63.36-7.73,4.08-3.77,7.28a21.35,21.35,0,0,0,7,3.21c1.93.54,4.19.68,5.82-.68,6.35-5.26-4.82-9.84-9.05-9.81a1.5,1.5,0,0,0,0,3c1.89,0,6.92,1,7.68,3,.86,2.32-3.2,1.75-4.31,1.37a24.42,24.42,0,0,1-4.13-1.79c-.6-.36-1.76-.6-1.37-1.76.18-.56,1.71-.79,2.13-.83C428.36,87.11,428.38,84.1,426.45,84.3Z"/><path class="cls-1" d="M473.36,88.9h0a6.45,6.45,0,0,0,1.15,3.83l3.86,7.06c.58,1.06,1.38,2.25,2.58,2.27a2.82,2.82,0,0,0,1.77-.75C494.35,92.11,474.34,81.53,473.36,88.9Z"/><path class="cls-2" d="M471.86,88.9c-.45,3.32,2.75,7.15,4.25,9.88,1.29,2.36,3,5.77,6.23,4.48,4-1.56,6.44-6.67,5.05-10.67-1.21-3.49-4.63-6.12-8.06-7.2-2.93-.93-6.77-.48-7.42,3.11-.34,1.88,2.55,2.69,2.89.79.77-4.25,8.22,1.48,9.22,3.17,1.43,2.4.74,4.81-1.16,6.72-1.08,1.09-1.82,1.51-3,.17A18.1,18.1,0,0,1,478,96c-1-1.87-3.42-4.82-3.12-7C475.11,87,472.11,87,471.86,88.9Z"/><path class="cls-1" d="M409.89,45.9c3.87,2.93,10.51.5,6.62-4.39C413.12,37.25,404.94,42.15,409.89,45.9Z"/><path class="cls-2" d="M409.13,47.2c2.38,1.71,6.15,2.15,8.53.19,2.66-2.18,1.37-6-1.05-7.85a6.59,6.59,0,0,0-7.92.32c-2.48,2-2.28,5.17.14,7.1,1.49,1.2,3.63-.91,2.12-2.12-1.13-.9-1.53-1.84-.22-2.78a3.61,3.61,0,0,1,4.06-.15c1,.75,2.12,2.56.66,3.38s-3.49.26-4.8-.68C409.08,43.48,407.58,46.08,409.13,47.2Z"/><rect class="cls-3" width="547" height="877"/></g></g></svg>