<svg xmlns="http://www.w3.org/2000/svg" viewBox="0 0 547 877"><defs><style>.cls-1{fill:#f6992a;}.cls-2{fill:#fff;}.cls-3{fill:#ee4e74;}.cls-4{fill:#31d9c0;}.cls-5{fill:#f5e330;}.cls-6{fill:none;}</style></defs><title>3_sprinkles</title><g id="Layer_2" data-name="Layer 2"><g id="Layer_1-2" data-name="Layer 1"><path class="cls-1" d="M146.42,63.41a18.29,18.29,0,0,0,18.22.17c3.38-1.87.36-7-3-5.18a12.1,12.1,0,0,1-12.16-.17c-3.35-1.94-6.37,3.25-3,5.18Z"/><path class="cls-2" d="M183.86,41.15h11.36c3.86,0,3.86-6,0-6H183.86c-3.86,0-3.86,6,0,6Z"/><path class="cls-3" d="M239.91,61.6a22,22,0,0,0,19.38-3.68c3-2.33,0-7.55-3-5.19a16.39,16.39,0,0,1-14.76,3.09c-3.73-1-5.32,4.76-1.59,5.78Z"/><path class="cls-2" d="M261.44,24.12a34.31,34.31,0,0,0,14-2.05c3.6-1.31,2.05-7.12-1.59-5.78a30.1,30.1,0,0,1-12.43,1.83c-3.86-.23-3.84,5.77,0,6Z"/><path class="cls-4" d="M312.8,50.39a19.54,19.54,0,0,0,13.74,1.87c3.77-.84,2.17-6.62-1.6-5.78a13,13,0,0,1-9.11-1.27c-3.4-1.82-6.44,3.36-3,5.18Z"/><path class="cls-4" d="M232.26,35.44a5.19,5.19,0,0,1,1-4.66,3.08,3.08,0,0,0,0-4.25,3,3,0,0,0-4.24,0A11.48,11.48,0,0,0,226.48,37c1,3.74,6.74,2.16,5.78-1.59Z"/><path class="cls-5" d="M200.35,63.12l7.54-3.84c3.44-1.76.4-6.93-3-5.18l-7.54,3.84c-3.44,1.76-.41,6.94,3,5.18Z"/><path class="cls-5" d="M351.58,19.59a6.23,6.23,0,0,1,7.65,4.12c1.1,3.7,6.89,2.12,5.79-1.59a12.32,12.32,0,0,0-15-8.32c-3.7,1.07-2.12,6.86,1.6,5.79Z"/><path class="cls-2" d="M373.82,53.32l14.84,8.11c3.39,1.85,6.43-3.33,3-5.18l-14.84-8.11c-3.39-1.86-6.42,3.32-3,5.18Z"/><path class="cls-3" d="M313.83,23a2.59,2.59,0,0,1,3.52-2.62A3,3,0,0,0,321,18.28a3.06,3.06,0,0,0-2.1-3.69c-5.27-2-11.55,2.81-11.11,8.4a3.08,3.08,0,0,0,3,3,3,3,0,0,0,3-3Z"/><path class="cls-5" d="M282,51.71l11.32,9.5c2.94,2.47,7.2-1.76,4.24-4.24l-11.32-9.5C283.26,45,279,49.22,282,51.71Z"/><path class="cls-4" d="M421.48,54.29a29.73,29.73,0,0,0,22.38,0c3.53-1.44,2-7.24-1.59-5.79a24.78,24.78,0,0,1-19.2,0c-3.58-1.43-5.14,4.37-1.59,5.79Z"/><path class="cls-3" d="M418.21,76.28a24.93,24.93,0,0,0,17.31,6.5c3.85-.08,3.87-6.08,0-6A18.65,18.65,0,0,1,422.45,72c-2.87-2.56-7.13,1.66-4.24,4.24Z"/><path class="cls-1" d="M394.68,32.48v3.78a3,3,0,0,0,6,0V32.48a3,3,0,0,0-6,0Z"/><path class="cls-3" d="M351.16,66.47,356.9,74a3.09,3.09,0,0,0,4.1,1.08c1.27-.74,2.06-2.81,1.08-4.11l-5.74-7.52a3.1,3.1,0,0,0-4.1-1.08c-1.27.74-2.07,2.81-1.08,4.11Z"/><path class="cls-1" d="M468.37,78.77l6.45,16.73c1.38,3.56,7.18,2,5.79-1.6l-6.46-16.73c-1.37-3.56-7.17-2-5.78,1.6Z"/><path class="cls-4" d="M113.81,81.62l7.65-7.48c2.77-2.7-1.48-7-4.24-4.24l-7.65,7.48c-2.77,2.7,1.47,6.94,4.24,4.24Z"/><path class="cls-3" d="M138.45,84.67h3.79a3,3,0,0,0,0-6h-3.79a3,3,0,0,0,0,6Z"/><path class="cls-5" d="M210.85,32l5.86-13.16c1.56-3.5-3.61-6.55-5.18-3L205.67,29c-1.56,3.5,3.61,6.56,5.18,3Z"/><path class="cls-1" d="M266.83,44.64,274.39,39a3.1,3.1,0,0,0,1.08-4.1c-.75-1.28-2.8-2.06-4.11-1.08l-7.56,5.68a3.1,3.1,0,0,0-1.08,4.11c.75,1.27,2.8,2,4.11,1.07Z"/><path class="cls-2" d="M270.52,67.1c-2.44,4.61,0,10.76,5.21,12,3.76.91,5.36-4.87,1.6-5.79a2.38,2.38,0,0,1-1.63-3.21c1.81-3.41-3.36-6.44-5.18-3Z"/><path class="cls-2" d="M333.63,35.19l7.58,5.66c1.3,1,3.35.21,4.1-1.07a3.07,3.07,0,0,0-1.07-4.11L336.66,30c-1.3-1-3.35-.21-4.11,1.08a3.07,3.07,0,0,0,1.08,4.1Z"/><rect class="cls-6" width="547" height="877"/></g></g></svg>