<svg xmlns="http://www.w3.org/2000/svg" viewBox="0 0 301.98 587.37"><defs><style>.cls-1{fill:#5b2a11;}.cls-2{fill:#2b0f07;}</style></defs><title>flake</title><g id="Layer_2" data-name="Layer 2"><g id="Layer_1-2" data-name="Layer 1"><path class="cls-1" d="M299.05,54c-2.53-.51-5.59,2.93-8.33,2-2.19-.77-3.08-3.88-3.76-6.54s-1.91-5.72-4.18-5.95c-3.09-.33-5.88,5-8.56,3.1-1.9-1.37-1.94-5.67-4.14-6-1.51-.19-2.56,1.88-4,2.4-1.77.64-3.47-1.1-4.77-2.71L253.73,31c-1.24-1.52-2.63-3.14-4.38-3.34s-3.35.91-4.87.14c-2.42-1.23-2.42-6.2-4.91-7.2-2.79-1.12-5.85,4-8.27,1.92-2-1.69-.8-5.7-3.16-7.06-2.08-1.19-4.48,1.7-6.58.2-1.64-1.17-1.48-4.13-2.46-6.12-2.91-5.88-8.24,3.55-11.45-2.2-.78-1.39-.9-3.17-1.42-4.73-1.27-3.75-4.4-2.67-6.78-1.44-3.72,1.92-7.2,5.56-9.9,9.2-4.27,5.73-7.18,12.82-9.61,19.93-5.26,15.41-8.11,32-14.16,47Q144.9,129.1,124.3,181.05,87.55,273.71,51.68,366.88c-11.85,30.77-22,63.77-35.67,93.35-4.14,9-12.75,14.63-15.23,24.32-3.39,13.3,5,24.24,12.05,32.81l58.06,70c18-99,77.93-177.38,114.1-268.54,6.76-17,12.7-34.56,19.12-51.8,23.26-62.43,52.78-121,83.42-178.45,2.69-5,19.9-27.86,12.71-34A2.52,2.52,0,0,0,299.05,54Z"/><path class="cls-2" d="M75.16,369.84A185.29,185.29,0,0,1,86.34,295c8.08-22.32,19.3-43.29,29.23-64.79,4.6-10,9-20.06,12.61-30.4,4.21-11.89,7.67-24,12.21-35.8a306.07,306.07,0,0,1,16.33-35.56c5.32-9.88,12.56-19.13,16.9-29.47,2.59-6.18,3.41-12.81,4.57-19.36a123.9,123.9,0,0,1,6-21.56c5.1-13.81,11.13-27.31,16.78-40.9.74-1.78-2.17-2.55-2.9-.79-5.17,12.45-10.57,24.84-15.45,37.41a144,144,0,0,0-5.79,17.77c-1.45,6-2.08,12.07-3.42,18.06-2.82,12.65-11.35,23-17.54,34.21a312.1,312.1,0,0,0-15.31,31.82c-9.66,23.32-16,47.71-26.47,70.73-9.48,20.75-20.25,40.94-28.5,62.24-10.1,26.06-15.13,53.3-13.39,81.27.12,1.92,3.12,1.93,3,0Z"/><path class="cls-2" d="M80.13,368c10.14-20.69,15-43.27,21.28-65.29,6.78-23.7,15.76-46.67,25.77-69.17,9.66-21.71,20-43.16,30.58-64.44,5.31-10.67,11.46-20.89,16.78-31.54,5.07-10.12,7.14-20.74,9.27-31.76,5-25.72,18.41-47.17,33-68.46,1.09-1.6-1.5-3.1-2.59-1.51-12.17,17.76-24.3,36-30.41,56.84-3.27,11.14-4,22.9-7.81,33.91-4,11.78-11.31,22.4-17,33.43-21.46,41.67-42.41,84.73-56.72,129.45-8.2,25.66-12.81,52.68-24.74,77-.85,1.73,1.74,3.25,2.59,1.52Z"/><path class="cls-2" d="M234.92,37.65c-4.1,23.12-22.68,39.81-28.77,62.21-3.59,13.19-4,27-7.52,40.23s-9,26-15.24,38.31c-11.87,23.31-25.9,45.26-36,69.45-9.18,22-16.58,44.57-25,66.8-9.65,25.41-20.79,50.76-38.09,72-1.21,1.49.9,3.62,2.12,2.13,30.27-37.15,42.24-85.1,59.37-128.91a364.94,364.94,0,0,1,15.34-34.56c6.57-12.75,14-25,20.83-37.63A245,245,0,0,0,198.11,152c4.53-13,6.35-26.27,8.55-39.81,2.35-14.54,8-26.6,15.6-39,6.7-10.94,13.28-21.89,15.56-34.71.33-1.88-2.56-2.69-2.9-.79Z"/><path class="cls-2" d="M110.2,399.09,137.25,325l13.52-37c4.49-12.31,8.58-24.89,13.95-36.85,4.83-10.78,11.78-20.06,18.43-29.74a159,159,0,0,0,15.42-28.49C207,173,212.39,152,219.18,131.57A241.52,241.52,0,0,1,233,97.22C239.52,84.57,248,73.08,255,60.73a1.5,1.5,0,0,0-2.59-1.51c-6.32,11.15-13.84,21.58-20,32.83a202.36,202.36,0,0,0-12.6,28.6c-7.61,21-13,42.69-20.95,63.55a169.38,169.38,0,0,1-14.44,29.85c-6.17,9.84-13.68,18.79-19.13,29.08-5.55,10.46-9.28,21.83-13.33,32.92l-13.53,37L107.3,398.3c-.66,1.81,2.24,2.6,2.9.79Z"/><path class="cls-2" d="M271.28,70.38c-7.11,24.28-23.76,43.45-35.64,65.34-12.52,23.08-15.29,48.79-21.86,73.82-12.65,48.27-50,85.65-60.63,134.63-3.06,14.07-4.42,29.32-12.46,41.69-7.4,11.4-19.08,19.16-26.72,30.42-1.09,1.6,1.51,3.1,2.59,1.51,6.76-10,16.62-17.1,24-26.57,7.78-10,10.74-22.09,13.15-34.32,2.5-12.7,5.33-25.06,10.2-37.1,4.79-11.81,10.85-23.05,17.15-34.11,12-21.14,25.09-42,32.7-65.24,8.36-25.54,9.7-53.1,21.57-77.51,12-24.59,31.08-45.12,38.88-71.77.55-1.85-2.35-2.65-2.89-.79Z"/><path class="cls-2" d="M102.83,339.07c.72-17.86,8.69-34.55,15.08-50.95,6.63-17,13.22-34.07,20.08-51,6.46-16,12.65-32.31,22.65-46.45,8.31-11.75,17.77-22.67,20.81-37.13.4-1.89-2.49-2.69-2.89-.8-3.27,15.55-14.18,26.75-22.69,39.58-9.32,14-15.22,30.25-21.5,45.79-6.83,16.93-13.41,34-20,51-6.29,16.15-13.79,32.4-14.5,50-.07,1.93,2.93,1.93,3,0Z"/><path class="cls-2" d="M207.59,65.65q-5.51,16.39-10.44,33c-3,10-7.61,21-7.22,31.57.07,1.92,3.07,1.93,3,0-.4-10.74,4.61-22.41,7.66-32.61q4.68-15.66,9.89-31.13c.61-1.83-2.28-2.62-2.89-.8Z"/><path class="cls-2" d="M219,102.35a167,167,0,0,0,13.36-25.52c.74-1.77-2.16-2.55-2.9-.79a161.44,161.44,0,0,1-13.05,24.79c-1,1.63,1.55,3.14,2.59,1.52Z"/><path class="cls-2" d="M195.74,222.2a45.74,45.74,0,0,1-6.23,18.46c-3.26,5.32-7.64,9.81-11.53,14.65a90.81,90.81,0,0,0-14.75,27c-.64,1.83,2.25,2.61,2.89.8,4.36-12.38,11.18-22.29,19.53-32.28,7.11-8.52,11.71-17.52,13.09-28.63.24-1.91-2.76-1.89-3,0Z"/><path class="cls-2" d="M130.93,381.93c8.36-11,11.44-25.2,9.72-38.83-.24-1.89-3.24-1.91-3,0,1.67,13.18-1.22,26.64-9.31,37.32-1.16,1.54,1.44,3,2.59,1.51Z"/><path class="cls-2" d="M106.29,374.72a65,65,0,0,1,9.87-12.25c1.38-1.34-.74-3.46-2.13-2.12A69.15,69.15,0,0,0,103.7,373.2c-1,1.64,1.56,3.15,2.59,1.52Z"/><path class="cls-2" d="M266.66,58c-6.08,2.88-5.73,11.76-8.26,17.09-4.4,9.24-11.13,17.79-16.67,26.39-1,1.63,1.55,3.14,2.59,1.52,5-7.76,10.32-15.41,15-23.36a36.35,36.35,0,0,0,3.83-9.07c.93-3.46,1.42-8.27,5-10,1.74-.82.22-3.41-1.52-2.59Z"/><path class="cls-2" d="M249.66,133.41Q244.35,147,240.24,161c-.55,1.86,2.35,2.65,2.89.8q4.11-14,9.43-27.59c.7-1.8-2.2-2.58-2.9-.8Z"/><path class="cls-2" d="M172.62,112a74.78,74.78,0,0,0-8.92,18.19c-2.35,6.67-8.21,10.36-11,16.65-2.44,5.39-2.79,11.53-4.51,17.16a66.25,66.25,0,0,1-10.29,20.06c-1.15,1.55,1.45,3,2.59,1.51a69.21,69.21,0,0,0,9.27-16.88c2.35-6.27,2.79-13,5.12-19.27s8.31-9.82,10.85-15.95c2.9-7,5.18-13.65,9.53-20,1.1-1.59-1.5-3.09-2.59-1.51Z"/><path class="cls-2" d="M89,323.78c2.55-13.85,4.21-28.38,9.75-41.43.74-1.76-1.84-3.29-2.59-1.52-5.66,13.34-7.44,28-10,42.15-.35,1.89,2.54,2.69,2.89.8Z"/><path class="cls-2" d="M208.84,201.74l10.66-45.53c.43-1.88-2.46-2.68-2.9-.8L206,200.94c-.44,1.88,2.45,2.68,2.89.8Z"/><path class="cls-2" d="M158.11,208.81c-2,6.27-6.27,10.33-9.77,15.64A39.64,39.64,0,0,0,142.63,239c-.36,1.88,2.53,2.69,2.89.79a38.57,38.57,0,0,1,8.27-17.55A37.3,37.3,0,0,0,161,209.61c.59-1.84-2.31-2.63-2.89-.8Z"/><path class="cls-2" d="M170.9,334.44c-1.35-5.65,4-12.79,6.46-17.64s4.89-9.9,7.13-14.94c.77-1.75-1.81-3.28-2.59-1.52-3.05,6.87-6.44,13.57-9.79,20.28-2.31,4.63-5.38,9.27-4.1,14.62.45,1.87,3.35,1.08,2.89-.8Z"/><path class="cls-2" d="M224.56,22.7,225,31c.21,3.88-.17,6.27-2.58,9.57s-4.27,6-5.39,9.81c-.54,1.86,2.36,2.65,2.9.8a21.49,21.49,0,0,1,4.62-8.49c1.12-1.3,2.41-2.38,3.08-4,1.84-4.49.18-11.29-.07-16-.11-1.92-3.11-1.94-3,0Z"/><path class="cls-2" d="M280.94,66.81c5.66,10.77-4.57,17.27-8.94,26-3.44,6.89-4.59,15-10.58,20.28-1.44,1.29.68,3.4,2.12,2.12,7.42-6.58,8-17.09,13.48-24.95,5.76-8.25,11.84-14.86,6.51-25-.9-1.71-3.49-.2-2.59,1.51Z"/></g></g></svg>