<svg xmlns="http://www.w3.org/2000/svg" viewBox="0 0 78 87"><defs><style>.cls-1,.cls-2{fill:none;}.cls-2{stroke:#fff;stroke-miterlimit:10;stroke-width:3px;}</style></defs><title>chocolate</title><g id="Layer_2" data-name="Layer 2"><g id="Layer_1-2" data-name="Layer 1"><rect class="cls-1" width="78" height="87"/></g><g id="Capa_1" data-name="Capa 1"><path class="cls-2" d="M56.86,11.15V45.4H20.49V11.15a2.24,2.24,0,0,1,2.24-2.24H54.62A2.24,2.24,0,0,1,56.86,11.15Z"/><path class="cls-2" d="M36.22,15.68v6.66a2.31,2.31,0,0,1-2.31,2.32h-6a2.32,2.32,0,0,1-2.32-2.32V15.68a2.32,2.32,0,0,1,2.32-2.32h6A2.31,2.31,0,0,1,36.22,15.68Z"/><path class="cls-2" d="M51.78,15.68v6.66a2.32,2.32,0,0,1-2.32,2.32h-6a2.31,2.31,0,0,1-2.31-2.32V15.68a2.31,2.31,0,0,1,2.31-2.32h6A2.32,2.32,0,0,1,51.78,15.68Z"/><path class="cls-2" d="M36.22,32v6.66A2.3,2.3,0,0,1,33.91,41h-6a2.31,2.31,0,0,1-2.32-2.31V32a2.32,2.32,0,0,1,2.32-2.32h6A2.31,2.31,0,0,1,36.22,32Z"/><path class="cls-2" d="M51.78,32v6.66A2.31,2.31,0,0,1,49.46,41h-6a2.3,2.3,0,0,1-2.31-2.31V32a2.31,2.31,0,0,1,2.31-2.32h6A2.32,2.32,0,0,1,51.78,32Z"/><path class="cls-2" d="M56.86,55.94V76.85a2.24,2.24,0,0,1-2.24,2.24H22.72a2.24,2.24,0,0,1-2.23-2.24V57.33a8,8,0,0,0,3.88.88c4.87,0,4.87-2.85,9.75-2.85s4.87,2.85,9.74,2.85,4.88-2.85,9.75-2.85A8.29,8.29,0,0,1,56.86,55.94Z"/><path class="cls-2" d="M60.87,57.89c-1.65-.47-2.57-1.36-4-2a8.29,8.29,0,0,0-3.25-.58c-4.87,0-4.87,2.85-9.75,2.85S39,55.36,34.12,55.36s-4.88,2.85-9.75,2.85a8,8,0,0,1-3.88-.88,13.29,13.29,0,0,0-4.1-1.82,1.69,1.69,0,0,1-1.35-2l.4-1.82.94-4.25a2.37,2.37,0,0,1,.18-.53,1.74,1.74,0,0,1,.1-.19l.11-.19.07-.08.07-.09,0,0,0,0,.09-.09.07-.07a2.61,2.61,0,0,1,1.78-.71H59a2.57,2.57,0,0,1,2.53,2.14L62.64,54,63,56A1.68,1.68,0,0,1,60.87,57.89Z"/></g></g></svg>