<svg xmlns="http://www.w3.org/2000/svg" viewBox="0 0 78 87"><defs><style>.cls-1,.cls-2{fill:none;}.cls-1{stroke:#fff;stroke-miterlimit:10;stroke-width:3px;}</style></defs><title>cone</title><g id="Layer_2" data-name="Layer 2"><g id="Layer_1-2" data-name="Layer 1"><path class="cls-1" d="M23.6,37.41h0Z"/><polygon class="cls-1" points="50.9 61.47 49.38 74.65 27.9 74.65 26.38 61.47 50.9 61.47"/><path class="cls-1" d="M53.05,42.85,51.52,56.09A2.6,2.6,0,0,0,51,56H26.32a2.76,2.76,0,0,0-.57.06L24.23,42.85Z"/><path class="cls-1" d="M53.68,37.41Z"/><path class="cls-1" d="M67.14,16.64a3.31,3.31,0,0,1-3.3,3.3H13.43a4,4,0,0,1-.5,0,3.3,3.3,0,0,1-2.79-3.26,3.29,3.29,0,0,1,2.79-3.25,2.74,2.74,0,0,1,.5,0H63.84A3.29,3.29,0,0,1,67.14,16.64Z"/><path class="cls-1" d="M64.06,19.94A25,25,0,0,1,53,37.41H24.28A25,25,0,0,1,13.22,19.93v0a4,4,0,0,0,.5,0Z"/><path class="cls-1" d="M56.25,40.13a2.7,2.7,0,0,1-2.72,2.72H23.74A2.72,2.72,0,0,1,21,40.13a2.67,2.67,0,0,1,.8-1.92,2.75,2.75,0,0,1,1.78-.8H53.68A2.73,2.73,0,0,1,56.25,40.13Z"/><path class="cls-1" d="M53.68,58.75a2.76,2.76,0,0,1-.8,1.93,2.71,2.71,0,0,1-1.92.79H26.32a2.72,2.72,0,0,1-2.72-2.72,2.74,2.74,0,0,1,2.15-2.66,2.76,2.76,0,0,1,.57-.06H51a2.6,2.6,0,0,1,.56.06A2.72,2.72,0,0,1,53.68,58.75Z"/><rect class="cls-2" width="78" height="87"/></g></g></svg>