<svg xmlns="http://www.w3.org/2000/svg" viewBox="0 0 78 87"><defs><style>.cls-1,.cls-2{fill:none;}.cls-2{stroke:#fff;stroke-linecap:round;stroke-linejoin:round;stroke-width:3px;}</style></defs><title>fudge</title><g id="Layer_2" data-name="Layer 2"><g id="Layer_1-2" data-name="Layer 1"><rect class="cls-1" width="78" height="87"/></g><g id="Capa_1" data-name="Capa 1"><polygon class="cls-2" points="72.35 31.21 55.69 30.49 17.39 17.71 34.28 18.73 34.31 18.73 72.35 31.21"/><path class="cls-2" d="M74.45,37,64.86,65.78c-.85,2.53-3.1,4-5,3.41l.88.29-17.15-.89-.9-.3c1.87.63,4.05-.79,4.94-3.18h0l9.67-29c.85-2.53,0-5.11-2-5.75l.38.13,16.66.72.13,0C74.41,31.9,75.3,34.47,74.45,37Z"/><path class="cls-2" d="M57.28,36.11,47.69,64.88a2.18,2.18,0,0,1-.09.23c-.89,2.39-3.07,3.81-4.94,3.18L5.52,55.91A3.32,3.32,0,0,1,5,55.66c-1.55-.91-2.19-3.22-1.43-5.5l9.59-28.77c.84-2.53,3.1-4.06,5-3.41L55.31,30.36C57.24,31,58.13,33.58,57.28,36.11Z"/></g></g></svg>