<svg xmlns="http://www.w3.org/2000/svg" viewBox="0 0 78 87"><defs><style>.cls-1,.cls-2{fill:none;}.cls-1{stroke:#fff;stroke-linecap:round;stroke-linejoin:round;stroke-width:3px;}</style></defs><title>maple</title><g id="Layer_2" data-name="Layer 2"><g id="Layer_1-2" data-name="Layer 1"><path class="cls-1" d="M71.79,59.19a17,17,0,0,1-14.47.44c-5.27-2.33-7.82-3.56-8.85-6h0a7,7,0,0,1-3.16,3.28A15.48,15.48,0,0,0,43.74,56a24.45,24.45,0,0,0,6.18-3.81,19.38,19.38,0,0,0,7.14-17.46A29.44,29.44,0,0,0,39.4,38.67c0-.23,0-.46,0-.69a25.26,25.26,0,0,0-1-7l.17.11c0-.27,0-.54,0-.81A26.4,26.4,0,0,1,48.47,9.9a26.4,26.4,0,0,1,9.88,20.34c0,.23,0,.46,0,.69A29.47,29.47,0,0,1,76,27a19.36,19.36,0,0,1-7.14,17.45,24.5,24.5,0,0,1-6.18,3.82A17,17,0,0,1,71.79,59.19Z"/><path class="cls-1" d="M52.85,66.93a17,17,0,0,1-14.47.44c-5.27-2.34-7.82-3.56-8.85-6.05h0c-1,2.49-3.58,3.71-8.85,6.05a17,17,0,0,1-14.47-.44A17,17,0,0,1,15.4,56a25.11,25.11,0,0,1-6.21-3.84C.18,44.52,2,34.76,2,34.76a29.44,29.44,0,0,1,17.68,4c0-.27,0-.53,0-.8a26.38,26.38,0,0,1,9.88-20.34,26.65,26.65,0,0,1,8.9,13.3,25.26,25.26,0,0,1,1,7c0,.23,0,.46,0,.69a29.44,29.44,0,0,1,17.66-3.91,19.38,19.38,0,0,1-7.14,17.46A24.45,24.45,0,0,1,43.74,56a15.48,15.48,0,0,1,1.57.84A17,17,0,0,1,52.85,66.93Z"/><polygon class="cls-1" points="29.53 61.33 29.53 61.33 29.52 61.32 29.53 61.33"/><line class="cls-1" x1="29.53" y1="35.14" x2="29.53" y2="76.9"/><polyline class="cls-1" points="14.62 46.14 29.53 56.02 44.4 46.14"/><rect class="cls-2" width="78" height="87"/></g></g></svg>