<svg xmlns="http://www.w3.org/2000/svg" viewBox="0 0 78 87"><defs><style>.cls-1,.cls-2{fill:none;}.cls-1{stroke:#fff;stroke-miterlimit:10;stroke-width:4px;}</style></defs><title>Asset 10</title><g id="Layer_2" data-name="Layer 2"><g id="Layer_1-2" data-name="Layer 1"><path class="cls-1" d="M57.82,31.37a20.2,20.2,0,0,0-2.07-.11A19.43,19.43,0,0,0,39,40.81a19.44,19.44,0,0,0-16.75-9.55,20.2,20.2,0,0,0-2.07.11,19.45,19.45,0,0,1,37.64,0Z"/><path class="cls-1" d="M36.92,55.63a19.36,19.36,0,0,0,2.08,5A19.45,19.45,0,1,1,20.18,31.37a20.2,20.2,0,0,1,2.07-.11A19.44,19.44,0,0,1,39,40.81a19.6,19.6,0,0,0-2.08,14.82Z"/><path class="cls-1" d="M75.2,50.71A19.46,19.46,0,1,1,55.75,31.26a20.2,20.2,0,0,1,2.07.11A19.46,19.46,0,0,1,75.2,50.71Z"/><rect class="cls-2" width="78" height="87"/></g></g></svg>