<svg xmlns="http://www.w3.org/2000/svg" viewBox="0 0 78.63 87"><defs><style>.cls-1,.cls-2{fill:none;}.cls-1{stroke:#fff;stroke-miterlimit:10;stroke-width:3px;}</style></defs><title>flake</title><g id="Layer_2" data-name="Layer 2"><g id="Layer_1-2" data-name="Layer 1"><path class="cls-1" d="M67.25,32.78c-.62.4-40.72,25.85-44,28.43S17.39,66,16.5,67.29s-3.86,2.49-3.86,2.49l.45-2.11a14,14,0,0,1-2.26-.27c.51-.06.81-2,.81-2l-1.93-.31.7-1.45-1.75-.33.66-1.79-1.76-.32.7-1.46-1.75-.32L7.38,58l-1.74-.16.72-1.28-1.87.21a16.89,16.89,0,0,1,4-2.68c1.81-.72,6.33-1.91,9.84-4.36S48.9,30.15,48.9,30.15a12.16,12.16,0,0,1,2.24-.27,13.17,13.17,0,0,1,5.22.83c2.87,1.12,5.7,2.75,8.4,2.69A5.62,5.62,0,0,0,67.25,32.78Z"/><path class="cls-1" d="M74.29,26.32C73,28.19,64.76,33.4,64.76,33.4c-2.7.06-5.53-1.57-8.4-2.69a13,13,0,0,0-5.22-.83s3.88-3.5,6-4.43S59.07,24,60.5,23s5-2.62,5.34-3.17,3.34-2.43,3.34-2.43a13.35,13.35,0,0,1,2.67,3c.29.48.33,1.24.6,1.65.4.6,1.17.71,1.45,1.53a2.71,2.71,0,0,0,.28.68C74.84,25.17,75,25.3,74.29,26.32Z"/><rect class="cls-2" x="0.63" width="78" height="87"/></g></g></svg>