<svg xmlns="http://www.w3.org/2000/svg" viewBox="0 0 78 87"><defs><style>.cls-1,.cls-2{fill:none;}.cls-1{stroke:#fff;stroke-linejoin:round;stroke-width:3px;}</style></defs><title>almonds</title><g id="Layer_2" data-name="Layer 2"><g id="Layer_1-2" data-name="Layer 1"><path class="cls-1" d="M62.9,29.48a6.28,6.28,0,1,1-6.28,6.28,6.29,6.29,0,0,1,6.28-6.28Z"/><path class="cls-1" d="M12.81,61.36a13.49,13.49,0,0,1-4.53-15.5C10.7,39.35,22,34,25.41,38.19c1.08,1.32-.18,3.68-1.73,6.42-1.91,3.35-4,7.55-2.94,11.47,1.33,5.13-1.18,10.36-7.93,5.28Z"/><path class="cls-1" d="M21,59.63c-.4,3.49-3.08,5.6-8.22,1.73a13.49,13.49,0,0,1-4.53-15.5c1.89-5.07,9.14-9.44,13.88-9.14-2.86,1.7-5.38,4.2-6.38,6.89a13.49,13.49,0,0,0,4.53,15.5C20.55,59.3,20.79,59.47,21,59.63Z"/><path class="cls-1" d="M61.89,58.06A25.12,25.12,0,0,1,60.6,61.9,24.32,24.32,0,0,1,38.2,76.58a24.29,24.29,0,0,1-4.69-26.36,24.92,24.92,0,0,1,1.91-3.58A40.54,40.54,0,0,1,61.89,58.06Z"/><path class="cls-1" d="M17.37,17.24a15.42,15.42,0,0,1,17.81-4.71c7.34,3,13.13,16,8.24,19.75-1.53,1.2-4.19-.3-7.27-2.16-3.77-2.26-8.49-4.73-13-3.69-5.9,1.37-11.78-1.63-5.79-9.19Z"/><path class="cls-1" d="M36.15,30.12c-3.77-2.26-8.49-4.73-13-3.69-3.88.91-7.76-.09-8.25-3A15.42,15.42,0,0,1,32.44,19c4.91,2,9.13,8.45,9.92,13.66C40.79,32.85,38.61,31.6,36.15,30.12Z"/><path class="cls-1" d="M58.56,19.46A1.54,1.54,0,0,1,57,21h-.4a1.54,1.54,0,0,1,0-3.07H57A1.54,1.54,0,0,1,58.56,19.46ZM5.83,29.65H5.42a1.53,1.53,0,1,0,0,3.06h.41a1.53,1.53,0,0,0,0-3.06Z"/><path class="cls-1" d="M25.66,71.67a1.53,1.53,0,0,1-1.53,1.53h-.41a1.53,1.53,0,1,1,0-3.06h.41A1.54,1.54,0,0,1,25.66,71.67Zm46.92-52.6h-.41a1.54,1.54,0,0,0,0,3.07h.41a1.54,1.54,0,0,0,0-3.07Z"/><path class="cls-1" d="M49.71,49.92a39.76,39.76,0,0,1,12.18,8.14A25.12,25.12,0,0,1,60.6,61.9c-.16.37-.33.72-.5,1.07C49.25,62.22,39.61,58.14,32.82,52c.2-.61.44-1.21.7-1.81a23.92,23.92,0,0,1,1.9-3.58A39.87,39.87,0,0,1,49.71,49.92Z"/><path class="cls-1" d="M62.78,34.39a1.92,1.92,0,1,1-1.91-1.92A1.92,1.92,0,0,1,62.78,34.39Z"/><rect class="cls-2" width="78" height="87"/></g></g></svg>