<svg xmlns="http://www.w3.org/2000/svg" viewBox="0 0 78 87"><defs><style>.cls-1,.cls-2{fill:none;}.cls-2{stroke:#fff;stroke-linejoin:round;stroke-width:3px;}</style></defs><title>caramel</title><g id="Layer_2" data-name="Layer 2"><g id="Layer_1-2" data-name="Layer 1"><rect class="cls-1" width="78" height="87"/></g><g id="Capa_1" data-name="Capa 1"><path class="cls-2" d="M75,46.72a11.38,11.38,0,0,1,.18,2c0,11.11-16.2,20.1-36.18,20.1s-36.18-9-36.18-20.1a11.38,11.38,0,0,1,.18-2"/><path class="cls-2" d="M75.18,44.71a11.21,11.21,0,0,1-.18,2C73.18,56.88,57.76,64.81,39,64.81S4.82,56.88,3,46.72a11.21,11.21,0,0,1-.18-2c0-7.64,7.68-14.28,19-17.68-.43,1.25-.88,2.73-1.36,4.45l-.32,1.19c-4.49,2.61-7.25,6.14-7.25,10,0,8,11.7,14.52,26.13,14.52s26.13-6.5,26.13-14.52c0-3.89-2.76-7.42-7.25-10l-.32-1.19c-.48-1.72-.93-3.2-1.36-4.45C67.5,30.43,75.18,37.07,75.18,44.71Z"/><path class="cls-2" d="M59.3,38.27a6.83,6.83,0,0,1,1.81,4.43c0,6.17-9.9,11.17-22.11,11.17s-22.11-5-22.11-11.17a6.83,6.83,0,0,1,1.81-4.43"/><path class="cls-2" d="M39,50.74c-11.9,0-21.8-6.26-20.4-12.06,0-.13.07-.27.1-.41.51-2.08,1-3.94,1.42-5.6l.32-1.19c.48-1.72.93-3.2,1.36-4.45,1.12-3.25,2.16-5,3.38-5.87a5.15,5.15,0,0,0-1.48,3.45,4.46,4.46,0,0,0,.38,1.79,7.89,7.89,0,0,0,3.11,3.33h0A18.28,18.28,0,0,0,32.84,32a28.65,28.65,0,0,0,12.32,0,18.53,18.53,0,0,0,5.62-2.23l0,0a7.82,7.82,0,0,0,3.11-3.33,4.46,4.46,0,0,0,.38-1.79,5.14,5.14,0,0,0-1.47-3.44c1.22.82,2.25,2.62,3.37,5.86.43,1.25.88,2.73,1.36,4.45l.32,1.19c.44,1.66.91,3.52,1.42,5.6,0,.14.06.28.1.41C60.8,44.48,50.9,50.74,39,50.74Z"/><path class="cls-2" d="M54.3,24.61a4.46,4.46,0,0,1-.38,1.79,7.82,7.82,0,0,1-3.11,3.33l-.28-.05.25.07A18.53,18.53,0,0,1,45.16,32a28.65,28.65,0,0,1-12.32,0,18.28,18.28,0,0,1-5.62-2.24l.25-.06-.27.05h0a7.89,7.89,0,0,1-3.11-3.33,4.46,4.46,0,0,1-.38-1.79,5.15,5.15,0,0,1,1.48-3.45c2.42-2.66,7.54-4.52,13.5-4.58h.64c6,.06,11.09,1.92,13.51,4.59A5.14,5.14,0,0,1,54.3,24.61Z"/></g></g></svg>