<svg xmlns="http://www.w3.org/2000/svg" viewBox="0 0 78 87"><defs><style>.cls-1,.cls-2{fill:none;}.cls-2{stroke:#fff;stroke-miterlimit:10;stroke-width:3px;}</style></defs><title>strawberry</title><g id="Layer_2" data-name="Layer 2"><g id="Layer_1-2" data-name="Layer 1"><rect class="cls-1" width="78" height="87"/></g><g id="Capa_1" data-name="Capa 1"><path class="cls-2" d="M67.7,38.82c-2.4-9.16-10.86-14.89-18.88-14.34a14.66,14.66,0,0,0-7.56,2.71l-.47.34-1.6,1.14-4.24,3-.76.54h0l0,0-.81.59-4.17,3L27.62,37l-.29.21-.32.23a14.58,14.58,0,0,0-5,6.26c-3.13,7.4-.43,17.27,7.47,22.52,0,0,13.18,9.31,27.77,10.5a9.4,9.4,0,0,0,9.08-5,8,8,0,0,0,.51-1.16C69.16,64.21,71.46,53.21,67.7,38.82ZM30.82,55.32c-.55.38-1.55-.09-2.25-1.07s-.83-2.09-.29-2.48,1.55.09,2.25,1.07S31.36,54.93,30.82,55.32ZM33,43.14c-.7-1-.82-2.09-.28-2.48s1.55.09,2.25,1.07.83,2.09.28,2.47S33.69,44.12,33,43.14Zm3.46,22.67c-.54.39-1.55-.09-2.25-1.07s-.83-2.08-.28-2.47,1.55.09,2.25,1.06S37,65.42,36.45,65.81Zm9.67-14.47c-.54.39-1.55-.09-2.25-1.07s-.83-2.08-.28-2.47,1.55.09,2.25,1.07S46.66,51,46.12,51.34Zm.29-15.85c-.7-1-.83-2.08-.28-2.47s1.55.09,2.25,1.06.82,2.09.28,2.48S47.11,36.47,46.41,35.49Zm3.82,30.2c-.55.39-1.55-.09-2.25-1.07s-.83-2.08-.29-2.47,1.55.09,2.25,1.07S50.77,65.3,50.23,65.69Zm5.86-18.47c-.7-1-.83-2.08-.29-2.47s1.55.09,2.25,1.07.83,2.08.29,2.47S56.79,48.2,56.09,47.22ZM60.71,71.3c-.54.39-1.55-.08-2.25-1.06s-.83-2.09-.29-2.48,1.55.09,2.25,1.07S61.25,70.92,60.71,71.3Zm.91-36.46c-.54.39-1.55-.09-2.25-1.07s-.83-2.08-.29-2.47,1.55.09,2.25,1.06S62.16,34.45,61.62,34.84Zm3.53,24.8c-.54.39-1.55-.09-2.25-1.07s-.83-2.08-.28-2.47,1.55.09,2.25,1.06S65.69,59.25,65.15,59.64Z"/><path class="cls-2" d="M48.82,24.48a14.66,14.66,0,0,0-7.56,2.71l-.47.34a12.84,12.84,0,0,0-.34-10.78,15.91,15.91,0,0,1,6.2-5.69c.5-.27,1-.54,1.59-.79a1.86,1.86,0,0,1,2.59,1.32c.11.51.22,1.09.3,1.73C51.55,16.46,51.48,20.91,48.82,24.48Z"/><path class="cls-2" d="M33.16,30.82a15.7,15.7,0,0,0-3.85-3.54l-5.68-7.93a1,1,0,1,1,1.64-1.17l5.87,8.21A16.12,16.12,0,0,0,33.16,30.82Z"/><path class="cls-2" d="M34,31.9c.06.09.12.17.17.26L34,32c-.26-.33-.53-.71-.8-1.13C33.46,31.2,33.72,31.56,34,31.9Z"/><path class="cls-2" d="M34.19,32.25h0l-.06-.1Z"/><path class="cls-2" d="M27.62,37l-.29.21-.32.23a14.58,14.58,0,0,0-5,6.26c-5.09,1.6-10.17-.71-12.8-2.28a1.87,1.87,0,0,1-.41-2.88,21.57,21.57,0,0,1,2.06-1.94,15.4,15.4,0,0,1,6.61-3.35A12.81,12.81,0,0,0,27.62,37Z"/><path class="cls-2" d="M34.18,32.26l0,0-.81.59-4.17,3L27.62,37A12.81,12.81,0,0,1,17.48,33.2a21.83,21.83,0,0,1-3.25-3.84,1.87,1.87,0,0,1,.87-2.78,22.91,22.91,0,0,1,2.43-.8c5.13-1.37,9-.28,11.78,1.5a15.7,15.7,0,0,1,3.85,3.54c.27.42.54.8.8,1.13l.16.21h0Z"/><path class="cls-2" d="M34.12,32.16,34,32c-.26-.33-.53-.71-.8-1.13.3.38.56.74.79,1.08C34,32,34.07,32.07,34.12,32.16Z"/><path class="cls-2" d="M40.79,27.53l-1.6,1.14-4.24,3-.76.54-.07-.09h0c0-.09-.11-.17-.17-.26-.23-.34-.49-.7-.79-1.08a16.12,16.12,0,0,1-2-4.43c-.89-3.26-.77-7.39,2.26-12a23.75,23.75,0,0,1,1.54-2,1.87,1.87,0,0,1,2.91.06,22,22,0,0,1,2.6,4.3A12.84,12.84,0,0,1,40.79,27.53Z"/><path class="cls-2" d="M34.12,32.16,34,32c-.26-.33-.53-.71-.8-1.13.3.38.56.74.79,1.08C34,32,34.07,32.07,34.12,32.16Z"/><path class="cls-2" d="M30.82,55.32c-.55.38-1.55-.09-2.25-1.07s-.83-2.09-.29-2.48,1.55.09,2.25,1.07S31.36,54.93,30.82,55.32Z"/><path class="cls-2" d="M35.24,44.2c-.54.39-1.55-.08-2.25-1.06s-.82-2.09-.28-2.48,1.55.09,2.25,1.07S35.79,43.82,35.24,44.2Z"/><path class="cls-2" d="M36.45,65.81c-.54.39-1.55-.09-2.25-1.07s-.83-2.08-.28-2.47,1.55.09,2.25,1.06S37,65.42,36.45,65.81Z"/><path class="cls-2" d="M46.12,51.34c-.54.39-1.55-.09-2.25-1.07s-.83-2.08-.28-2.47,1.55.09,2.25,1.07S46.66,51,46.12,51.34Z"/><path class="cls-2" d="M48.66,36.56c-.54.39-1.55-.09-2.25-1.07s-.83-2.08-.28-2.47,1.55.09,2.25,1.06S49.2,36.17,48.66,36.56Z"/><path class="cls-2" d="M50.23,65.69c-.55.39-1.55-.09-2.25-1.07s-.83-2.08-.29-2.47,1.55.09,2.25,1.07S50.77,65.3,50.23,65.69Z"/><path class="cls-2" d="M58.34,48.29c-.54.39-1.55-.09-2.25-1.07s-.83-2.08-.29-2.47,1.55.09,2.25,1.07S58.88,47.9,58.34,48.29Z"/><path class="cls-2" d="M60.71,71.3c-.54.39-1.55-.08-2.25-1.06s-.83-2.09-.29-2.48,1.55.09,2.25,1.07S61.25,70.92,60.71,71.3Z"/><path class="cls-2" d="M61.62,34.84c-.54.39-1.55-.09-2.25-1.07s-.83-2.08-.29-2.47,1.55.09,2.25,1.06S62.16,34.45,61.62,34.84Z"/><path class="cls-2" d="M65.15,59.64c-.54.39-1.55-.09-2.25-1.07s-.83-2.08-.28-2.47,1.55.09,2.25,1.06S65.69,59.25,65.15,59.64Z"/><path class="cls-2" d="M30.82,55.32c-.55.38-1.55-.09-2.25-1.07s-.83-2.09-.29-2.48,1.55.09,2.25,1.07S31.36,54.93,30.82,55.32Z"/><path class="cls-2" d="M35.24,44.2c-.54.39-1.55-.08-2.25-1.06s-.82-2.09-.28-2.48,1.55.09,2.25,1.07S35.79,43.82,35.24,44.2Z"/><path class="cls-2" d="M46.12,51.34c-.54.39-1.55-.09-2.25-1.07s-.83-2.08-.28-2.47,1.55.09,2.25,1.07S46.66,51,46.12,51.34Z"/><path class="cls-2" d="M61.62,34.84c-.54.39-1.55-.09-2.25-1.07s-.83-2.08-.29-2.47,1.55.09,2.25,1.06S62.16,34.45,61.62,34.84Z"/><path class="cls-2" d="M58.34,48.29c-.54.39-1.55-.09-2.25-1.07s-.83-2.08-.29-2.47,1.55.09,2.25,1.07S58.88,47.9,58.34,48.29Z"/><path class="cls-2" d="M65.15,59.64c-.54.39-1.55-.09-2.25-1.07s-.83-2.08-.28-2.47,1.55.09,2.25,1.06S65.69,59.25,65.15,59.64Z"/><path class="cls-2" d="M50.23,65.69c-.55.39-1.55-.09-2.25-1.07s-.83-2.08-.29-2.47,1.55.09,2.25,1.07S50.77,65.3,50.23,65.69Z"/><path class="cls-2" d="M60.71,71.3c-.54.39-1.55-.08-2.25-1.06s-.83-2.09-.29-2.48,1.55.09,2.25,1.07S61.25,70.92,60.71,71.3Z"/><path class="cls-2" d="M48.66,36.56c-.54.39-1.55-.09-2.25-1.07s-.83-2.08-.28-2.47,1.55.09,2.25,1.06S49.2,36.17,48.66,36.56Z"/><path class="cls-2" d="M36.45,65.81c-.54.39-1.55-.09-2.25-1.07s-.83-2.08-.28-2.47,1.55.09,2.25,1.06S37,65.42,36.45,65.81Z"/></g></g></svg>