<svg xmlns="http://www.w3.org/2000/svg" viewBox="0 0 78 87"><defs><style>.cls-1,.cls-2{fill:none;}.cls-2{stroke:#fff;stroke-linejoin:round;stroke-width:3px;}</style></defs><title>vanilla</title><g id="Layer_2" data-name="Layer 2"><g id="Layer_1-2" data-name="Layer 1"><rect class="cls-1" width="78" height="87"/></g><g id="Capa_1" data-name="Capa 1"><path class="cls-2" d="M38.56,36.49c3.84-4,7.68-7.9,11.59-11.78,2-2,4-4.35,6.33-5.92.83-.56,2.09-1,1.8.44A9.74,9.74,0,0,1,57,22.05"/><path class="cls-2" d="M4.74,63.38c4.9-4.91,11.06-8.56,16.49-13.28"/><path class="cls-2" d="M38.59,40.36c8.3-3.63,16.7-7.55,25.11-10.64,3.08-1.4,5.6-3.09,9-3.93h1.12a1,1,0,0,1,.28.56c0,.85-.84,1.41-1,2.11"/><path class="cls-2" d="M1.94,57.21c5.75-2.47,11.46-5,17.21-7.47"/><path class="cls-2" d="M30.79,44.58c-8.12-11.77,2.8-21.31,2.8-21.31s9.8,9.82,2.8,21.31Z"/><path class="cls-2" d="M29.24,49.75C15.54,53.85,9.86,40.5,9.86,40.5S22.21,34.2,31,44.42Z"/><path class="cls-2" d="M33.4,52.9c-.35,14.31-14.78,15.6-14.78,15.6S16.45,54.79,28.86,49.61Z"/><path class="cls-2" d="M37.8,50.05C51.29,54.8,48.05,68.94,48.05,68.94s-13.69-2.17-14.78-15.6Z"/><path class="cls-2" d="M36.25,44.87C44.92,33.5,57.35,41,57.35,41S51.06,53.32,38,50.21Z"/><path class="cls-2" d="M37,55.13l-3.3-1.88a.91.91,0,0,0-.86,0l-3.41,1.66a.93.93,0,0,1-1.32-1l.76-3.72a.94.94,0,0,0-.24-.83L26,46.58A.93.93,0,0,1,26.59,45l3.77-.43a.9.9,0,0,0,.71-.48l1.78-3.35a.93.93,0,0,1,1.67,0l1.57,3.45a.9.9,0,0,0,.68.53l3.74.67a.93.93,0,0,1,.46,1.6l-2.8,2.56a1,1,0,0,0-.29.82l.53,3.76A.94.94,0,0,1,37,55.13Z"/></g></g></svg>