<svg xmlns="http://www.w3.org/2000/svg" viewBox="0 0 78 87"><defs><style>.cls-1{fill:#fff;}.cls-2{fill:none;}</style></defs><title>waffle-cone</title><g id="Layer_2" data-name="Layer 2"><g id="Layer_1-2" data-name="Layer 1"><path class="cls-1" d="M20.8,30.37l0,.07,0,0Zm34.64,2.57.08.1.14-.4ZM30.06,47.57l-.11.15.31.41Z"/><path class="cls-1" d="M60.75,13.36a3.16,3.16,0,0,0-3-1l-1.77.39c-1.31.27-2.8.57-4.39.86-1.92.35-4,.68-6,1-1.17.15-2.34.27-3.46.36s-2.4.16-3.49.16c-.82,0-1.68,0-2.56-.08-1.13-.07-2.31-.18-3.5-.32-1.94-.23-3.91-.53-5.76-.85-1.56-.27-3-.56-4.36-.83l-2.81-.62a3.16,3.16,0,0,0-3.68,4.14L20.8,30.37l0,.05,0,0L22,33.85,24.19,40h0l2.51,7.1,1.21,3.41,4.67,13.23,1.2,3.4,1.87,5.28h0a3.16,3.16,0,0,0,6,0l2.15-6.07L45,62.9l4.67-13.22,1.21-3.41,1.43-4.06L55.52,33l-.08-.1.22-.3,1.06-3,4.64-13.13A3.15,3.15,0,0,0,60.75,13.36ZM49,17.1l-.77,1-.62-.83Zm-15,.74c1.62.16,3.2.25,4.66.25a53.39,53.39,0,0,0,5.58-.34l2.16,2.91-7.25,9.76-7.25-9.76ZM23,27.53l-4.24-12a.15.15,0,0,1,0-.17.13.13,0,0,1,.15,0c1.63.37,3.76.82,6.13,1.26l3,4.09Zm3.89,11-2.68-7.6L30,23.18l7.24,9.75L30,42.69Zm3.19,9,.2.56L30,47.72Zm4.68,13.24L30.26,48.14l7,9.35Zm4,10.59a.15.15,0,0,1-.16.11.14.14,0,0,1-.15-.11l-2.54-7.19L39.07,60l2.54,3.42Zm4-11.4-1.88-2.52,5.28-7.11Zm-3.74-5L31.82,45.2l7.25-9.75,7.25,9.76ZM49.61,40.79,48.19,42.7l-7.25-9.77,7.25-9.76,5.18,7Zm8.93-25.28-4,11.23-4.52-6.08,3.21-4.31c2-.37,3.7-.75,5.09-1.06a.15.15,0,0,1,.15.06A.14.14,0,0,1,58.54,15.51Z"/><rect class="cls-2" width="78" height="87"/></g></g></svg>