<svg xmlns="http://www.w3.org/2000/svg" viewBox="0 0 447 480.7"><defs><style>.cls-1{fill:#f0d0ad;}.cls-2{fill:#d1b293;}</style></defs><title>cone</title><g id="Layer_2" data-name="Layer 2"><g id="Layer_1-2" data-name="Layer 1"><polygon class="cls-1" points="307.74 480.7 139.28 480.7 105.58 188.69 341.44 188.69 307.74 480.7"/><path class="cls-1" d="M447,25.83a25.85,25.85,0,0,1-25.83,25.83H25.83a28.06,28.06,0,0,1-3.93-.29A25.85,25.85,0,0,1,21.9.29,28.06,28.06,0,0,1,25.83,0H421.17A25.83,25.83,0,0,1,447,25.83Z"/><path class="cls-1" d="M422.83,51.66C409.9,148,325.59,222.38,223.52,222.38S37,147.85,24.17,51.37a28.06,28.06,0,0,0,3.93.29Z"/><rect class="cls-1" x="85.36" y="188.68" width="276.29" height="42.68" rx="9.5" ry="9.5"/><rect class="cls-1" x="105.58" y="334.69" width="235.86" height="42.68" rx="9.5" ry="9.5"/><path class="cls-2" d="M422.83,54.16H28.1a31,31,0,0,1-4.28-.31,2.5,2.5,0,1,1,.7-5,25.47,25.47,0,0,0,3.58.26H422.83a2.5,2.5,0,0,1,0,5Z"/><path class="cls-2" d="M336.51,233.86h-226a2.5,2.5,0,1,1,0-5h226a2.5,2.5,0,0,1,0,5Z"/><path class="cls-2" d="M341.44,191.18H105.58a2.5,2.5,0,1,1,0-5H341.44a2.5,2.5,0,0,1,0,5Z"/><path class="cls-2" d="M319.67,379.87H127.35a2.5,2.5,0,0,1,0-5H319.67a2.5,2.5,0,0,1,0,5Z"/><path class="cls-2" d="M324.59,337.19H122.43a2.5,2.5,0,0,1,0-5H324.59a2.5,2.5,0,0,1,0,5Z"/></g></g></svg>