<svg xmlns="http://www.w3.org/2000/svg" viewBox="0 0 447 493.48"><defs><style>.cls-1{fill:#f0d0ad;}.cls-2{fill:#d1b293;}.cls-3{fill:none;}</style></defs><title>waffle-cone</title><g id="Layer_2" data-name="Layer 2"><g id="Layer_1-2" data-name="Layer 1"><path class="cls-1" d="M419.09,18.92,376,129.91l-2.08,5.36-35,90-5.84,15.06h0l-11.47,29.49-2.08,5.36L267.23,409.76l-2.08,5.35L238.37,484c-4.9,12.61-24.51,12.61-29.41,0L184.8,421.84h0l-2.08-5.35h0L130.43,281.92l-2.08-5.36-21.43-55.14h0l-5.84-15.06h0L76.06,142,74,136.63,28.3,19.07C24.21,8.54,34.47-2,46.45.51c15.07,3.1,35.15,7,57.42,10.7l7.47,1.23c18.54,3,38.33,5.71,57.8,7.7,2,.2,4,.4,6,.58,16.71,1.58,33.07,2.54,48.08,2.54a545.29,545.29,0,0,0,56.36-3.45l5.93-.65c20.4-2.32,41.07-5.39,60.11-8.56l7.5-1.27c18.43-3.17,35-6.37,47.91-9C413-2.07,423.17,8.42,419.09,18.92Z"/><path class="cls-2" d="M376,129.91l-2.08,5.36L312.05,59.58l-3.23-4L279.56,19.81l5.93-.65,26.56,32.51,3.23,3.95Z"/><path class="cls-2" d="M321.59,269.83l-2.08,5.36-7.46-9.14-3.23-3.95-81.1-99.28-3.23-4L143.38,59.58l-3.23-4L103.87,11.21l7.47,1.23,32,39.23,3.23,3.95,81.1,99.29,3.23,4,81.1,99.29,3.23,4Z"/><polygon class="cls-2" points="267.23 409.76 265.15 415.11 227.72 369.29 224.49 365.34 143.39 266.06 140.16 262.1 106.92 221.42 106.92 221.41 101.08 206.35 143.38 258.15 146.61 262.1 227.72 361.39 230.95 365.34 267.23 409.76"/><path class="cls-2" d="M175.12,20.72l-28.5,34.9-3.24,4L76.06,142,74,136.63l66.17-81,3.24-3.95,25.75-31.53C171.14,20.34,173.13,20.54,175.12,20.72Z"/><path class="cls-2" d="M353.1,9.33,315.28,55.62l-3.23,4L231,158.86l-3.23,4L146.61,262.1l-3.22,4-13,15.86-2.08-5.36,11.81-14.46,3.22-4,81.11-99.29,3.23-4,81.1-99.29,3.23-3.95L345.6,10.6Z"/><polygon class="cls-2" points="338.91 225.27 333.07 240.33 333.06 240.34 315.28 262.1 312.05 266.05 230.95 365.34 227.72 369.29 184.8 421.83 182.72 416.48 182.72 416.47 224.49 365.34 227.72 361.39 308.82 262.1 312.05 258.15 338.91 225.27"/><rect class="cls-3" y="0.48" width="447" height="493"/></g></g></svg>