<svg xmlns="http://www.w3.org/2000/svg" viewBox="0 0 547 877.43"><defs><style>.cls-1{fill:#fcedd0;}.cls-2{fill:none;}</style></defs><title>1_vanilla</title><g id="Layer_2" data-name="Layer 2"><g id="Layer_1-2" data-name="Layer 1"><path class="cls-1" d="M26.59,831.4c-.48,1.31-.91,2.65-1.28,4-4.47,16.37,3.05,37.29,19.57,41.16,34,8,52.43-42.07,91-26.78,19.3,7.66,35.33,28.9,55.6,24.39,10-2.24,17.46-10.45,26.15-15.95a53.06,53.06,0,0,1,45.44-5c18.05,6.44,35.52,22.95,53.41,16.1,9.08-3.47,15-12.26,23.41-17.15,15.21-8.85,34.32-3.26,51.2,1.69s37.23,8.29,50.3-3.48c4.31-3.87,7.47-9.18,12.62-11.82,15.09-7.73,30,12,46.67,14.85,13.61,2.3,27.38-8.39,30.76-21.78,4.15-16.49-4.86-28.35-16.65-38.6-17.48-15.2,8.54-52.84,12.65-70.9a209.88,209.88,0,0,0,.63-90.93c-16.53-76-77.29-138.8-151.36-161.11-136.07-41-329.27,2.7-345.5,169.87-2.83,29.21-.63,58.67,4.25,87.54,3,17.59,21,55.7,13.91,72.34C44.53,811.19,31.28,818.6,26.59,831.4Z"/><rect class="cls-2" width="547" height="877"/></g></g></svg>