<svg xmlns="http://www.w3.org/2000/svg" viewBox="0 0 548 877"><defs><style>.cls-1{fill:#543224;}.cls-2{fill:#492519;}.cls-3{fill:#35160e;}.cls-4{fill:none;}</style></defs><title>3_chocolate</title><g id="Layer_2" data-name="Layer 2"><g id="Layer_1-2" data-name="Layer 1"><path class="cls-1" d="M24.59,830.4c-.48,1.31-.91,2.65-1.28,4-4.47,16.37,3.05,37.29,19.57,41.16,34,8,52.43-42.07,91-26.78,19.3,7.66,35.33,28.9,55.6,24.39,10-2.24,17.46-10.45,26.15-15.95a53.06,53.06,0,0,1,45.44-5c18.05,6.44,35.52,22.95,53.41,16.1,9.08-3.47,15-12.26,23.41-17.15,15.21-8.85,34.32-3.26,51.2,1.69s37.23,8.29,50.3-3.48c4.31-3.87,7.47-9.18,12.62-11.82,15.09-7.73,30,12,46.67,14.85,13.61,2.3,27.38-8.39,30.76-21.78,4.15-16.49-4.86-28.35-16.65-38.6-17.48-15.2,8.54-52.84,12.65-70.9a209.88,209.88,0,0,0,.63-90.93c-16.53-76-77.29-138.8-151.36-161.11-136.07-41-329.27,2.7-345.5,169.87-2.83,29.21-.63,58.67,4.25,87.54,3,17.59,21,55.7,13.91,72.34C42.53,810.19,29.28,817.6,24.59,830.4Z"/><path class="cls-2" d="M55.91,553.94c-19.38,7.92-38.14,23-41,43.72S34.09,641,53.05,632.11c12.8-6,19.33-23,33.29-25.16s25.07,12.09,38.84,15.48c26.14,6.42,47.46-27.09,74.36-26.09,21.22.8,35.6,22.39,55.68,29.33C286.4,636.44,310.14,595.18,343,592c13.22-1.28,43,32.37,56,35,33,6.66,37-18.66,70-12,8.15,1.65,36.56,18.65,44.65,16.72,19.56-4.67,28.73-29.87,21.82-48.76s-25.18-31.46-44-38.42c7.52,2.78,24-17.62,28.23-22.76C587.12,439.24,523.09,323.39,444,276c-48.13-28.86-106.8-34.58-161.71-29.62l-2.09.2-2.1.2c-45.06,4.49-92.44,12.19-135.55,26.53C102.78,286.55,64.72,308,38.16,340.5,9.8,375.18-2.88,421.63,1.89,466c2.37,22,8.78,40.87,20.64,59.27,7.9,12.26,19.72,19.82,29.56,30.44"/><path class="cls-3" d="M19.85,308.4C13.88,330.57,32.31,358,55,354.7c24.7-3.61,42.61-38,66-29.15,8,3,13.48,10.7,21.42,13.82,30.61,12,54.59-49.16,85.11-36.88,20.89,8.4,25.31,47.11,47.46,43,15.71-2.9,17.25-24.69,26.59-37.66,9.8-13.59,31.54-16.42,44.49-5.77,7.2,5.93,11.33,14.76,17.63,21.65s16.94,11.76,24.83,6.78c6.18-3.89,8.05-12.13,13.38-17.12,14.51-13.58,35.55,5.14,52.06,16.22,13.81,9.26,32.59,13,47.17,5s21-29.92,9.86-42.25c-6.44-7.12-13.17-15.12-17.05-23.84,44-18.3,38.87-49.1,40.22-72.51,2.06-35.84-20.16-73.07-38.85-104.13-20.62-34.25-57.51-55-93.77-69.31C325.24-7.57,234-7.92,159.65,28.16,88.29,62.77,12.45,154.91,35.48,239.8c3.64,13.41,15.73,24,26.42,29.65C43.5,275.9,25.18,288.63,19.85,308.4Z"/><rect class="cls-4" width="547" height="877"/></g></g></svg>