<svg version="1.1" x="0px" y="0px"
	 viewBox="0 0 512.002 512.002" style="enable-background:new 0 0 512.002 512.002;" xml:space="preserve">
     <g class="ice-cream-loader-lines">
		<path d="M202.312,314.054c-4.142,0-7.5,3.358-7.5,7.5v9.717c0,4.143,3.358,7.5,7.5,7.5c4.142,0,7.5-3.358,7.5-7.5v-9.717
			C209.812,317.412,206.454,314.054,202.312,314.054z"/>
		<path d="M309.689,314.054c-4.142,0-7.5,3.358-7.5,7.5v9.717c0,4.143,3.358,7.5,7.5,7.5c4.142,0,7.5-3.358,7.5-7.5v-9.717
			C317.189,317.412,313.831,314.054,309.689,314.054z"/>
		<path d="M277.218,325.602c-3.119-2.726-7.856-2.408-10.583,0.711c-2.577,2.948-6.453,4.639-10.634,4.639
			c-4.181,0-8.057-1.691-10.634-4.639c-2.727-3.119-7.464-3.437-10.583-0.711c-3.119,2.726-3.437,7.464-0.711,10.583
			c5.426,6.207,13.418,9.767,21.928,9.767c8.51,0,16.502-3.56,21.928-9.767C280.655,333.066,280.337,328.328,277.218,325.602z"/>
		<path d="M382.054,251.931c5.75-15.973,4.006-32.116-5.165-45.381c-2.505-3.624-5.483-6.95-8.88-9.991
			c8.089-24.734,6.316-46.598-5.218-63.493c-8.096-11.857-20.696-20.972-37.319-27.175c7.655-16.667,8.064-31.311,1.277-44.56
			c-6.639-12.962-18.779-21.991-30.519-30.723c-10.396-7.732-20.215-15.035-23.506-23.418c-1.119-2.85-3.372-5.156-6.181-6.326
			c-2.81-1.171-5.896-1.151-8.689,0.054c-7.209,3.11-21.261,9.891-34.37,20.354c-15.932,12.716-25.507,26.824-28.528,41.979
			c-4.867,3.418-14.873,11.196-23.492,22.686c-14.672,19.561-18.827,41.099-12.184,62.624c-6.255,4.878-17.38,14.673-26.113,28.44
			c-10.977,17.304-19.899,43.86-4.057,75.317c-8.624,4.228-14.577,13.096-14.577,23.33c0,11.674,7.746,21.571,18.367,24.829
			c0.137,6.64,0.98,17.352,4.359,29.168c5.76,20.142,16.776,35.982,32.188,46.615c-5.361,4.76-8.748,11.696-8.748,19.413
			c0,11.93,8.09,22,19.069,25.029l6.343,65.08c1.458,14.949,13.883,26.222,28.902,26.222h81.973
			c15.02,0,27.445-11.273,28.902-26.222l6.343-65.08c10.98-3.029,19.069-13.099,19.069-25.029c0-7.716-3.387-14.653-8.748-19.413
			c15.412-10.634,26.427-26.475,32.188-46.615c3.379-11.816,4.222-22.528,4.359-29.168c10.621-3.257,18.367-13.154,18.367-24.829
			C397.466,265.086,391.126,255.984,382.054,251.931z M232.843,32.997c9.943-7.937,20.567-13.54,27.549-16.779
			c5.584,10.583,16.397,18.625,26.888,26.427c10.36,7.706,21.074,15.674,26.12,25.525c3.13,6.11,6.068,16.035-2.424,33.296
			c-0.168-0.041-0.345-0.076-0.514-0.117c-17.768-4.262-35.773-3.452-53.769-5.727c-19.193-2.426-36.05-13.945-46.988-29.648
			C212.08,54.448,219.852,43.368,232.843,32.997z M310.96,484.325c-0.704,7.227-6.711,12.677-13.972,12.677h-81.973
			c-7.261,0-13.269-5.45-13.973-12.677l-6.11-62.688h122.138L310.96,484.325z M325.338,406.637h-0.002h-138.67h-0.002
			c-6.046-0.001-10.964-4.919-10.964-10.965c0-6.046,4.918-10.965,10.965-10.965h138.67c6.046,0,10.965,4.919,10.965,10.965
			C336.301,401.717,331.383,406.636,325.338,406.637z M360.192,325.959c-6.106,20.949-18.354,35.659-36.416,43.747h-135.55
			c-18.062-8.087-30.31-22.798-36.416-43.747c-2.803-9.617-3.649-18.521-3.862-24.348h216.105
			C363.841,307.441,362.994,316.346,360.192,325.959z M371.504,286.613H140.501c-6.046,0-10.965-4.919-10.965-10.965
			c0-6.046,4.919-10.965,10.965-10.965h154.064c4.142,0,7.5-3.358,7.5-7.5c0-4.142-3.358-7.5-7.5-7.5H144.719
			c-25.506-44.341,9.198-77.768,22.694-88.476c4.081,3.958,8.403,7.668,12.983,11.038c4.617,3.396,9.616,6.521,14.765,9.153
			c4.025,2.057,9.035-0.019,10.409-4.277c1.117-3.464-0.297-7.403-3.588-9.083c-10.237-5.222-19.332-12.483-27.273-20.75
			c-0.018-0.019-0.034-0.036-0.052-0.054c-6.608-17.907-3.735-35.377,8.55-51.947c5.696-7.683,12.257-13.521,16.821-17.105
			c5.887,7.741,12.932,14.679,21.056,20.058c38.572,25.536,99.654-0.165,129.321,43.286c8.281,12.128,9.848,27.562,4.697,45.967
			c-19.566-10.756-47.363-15.33-80.853-13.117c-14.975,0.989-29.683,4.075-44.727,2.158c-4.031-0.514-7.875,2.466-8.388,6.492
			c-0.511,4.015,2.44,7.871,6.492,8.388c9.739,1.242,19.652,1.059,29.375-0.242c21.996-2.943,44.79-3.791,66.711,0.904
			c14.721,3.153,31.872,10.03,40.842,23.005c6.923,10.015,7.685,22.172,2.27,34.603h-42.256c-4.142,0-7.5,3.358-7.5,7.5
			c0,4.142,3.358,7.5,7.5,7.5h46.937c6.046,0,10.965,4.919,10.965,10.965C382.469,281.694,377.55,286.613,371.504,286.613z"/>
     </g>
</svg>
