<svg xmlns="http://www.w3.org/2000/svg" viewBox="0 0 203.12 112.21"><defs><style>.cls-1{fill:#fff;}</style></defs><title>logo</title><g id="Layer_2" data-name="Layer 2"><g id="Layer_1-2" data-name="Layer 1"><path class="cls-1" d="M160.78,27a1.41,1.41,0,0,1-1.22-.71,11.1,11.1,0,0,0-9.6-5.56,10.85,10.85,0,0,0-1.71.13,1.41,1.41,0,0,1-1.48-2A11.09,11.09,0,0,0,145.51,7a1.4,1.4,0,0,1,0-1.76,13.88,13.88,0,1,1,15.77,21.62A1.43,1.43,0,0,1,160.78,27Zm-10.62-9.09a13.92,13.92,0,0,1,11.16,5.91,11.06,11.06,0,0,0-5-20.94,11,11,0,0,0-7.94,3.37,14,14,0,0,1,1.74,11.66Z"/><path class="cls-1" d="M159.89,40.76h-17a1.41,1.41,0,0,1-1.4-1.26,34.08,34.08,0,0,0-3.79-12.59,1.39,1.39,0,0,1-.05-1.24c.06-.13.12-.28.2-.43a1.4,1.4,0,0,1,1-.73,11.08,11.08,0,0,0,8.2-6,1.4,1.4,0,0,1,1.05-.77,15.19,15.19,0,0,1,2.14-.16A13.87,13.87,0,0,1,161,40.25,1.4,1.4,0,0,1,159.89,40.76Zm-15.76-2.82H159.2a11.05,11.05,0,0,0-8.94-17.56c-.34,0-.69,0-1,.05a13.56,13.56,0,0,1-1.22,1.8A13.84,13.84,0,0,1,140.87,27,36.85,36.85,0,0,1,144.13,37.94Z"/><path class="cls-1" d="M139.05,27.65a1.41,1.41,0,0,1-1.23-.73,30.1,30.1,0,0,0-7.32-8.75c-.48-.39-1-.78-1.49-1.14a24.14,24.14,0,0,0-4.56-2.63A1.41,1.41,0,0,1,123.6,13a13.87,13.87,0,0,1,24-8.57c.23.25.46.51.68.79l0,0a13.93,13.93,0,0,1,3,8.59,13.9,13.9,0,0,1-3,8.65A13.89,13.89,0,0,1,141.85,27a13.54,13.54,0,0,1-2.26.55l-.34.05ZM126.51,12.24a29,29,0,0,1,4.15,2.5c.55.4,1.09.81,1.62,1.24a32.87,32.87,0,0,1,7.5,8.7,11.19,11.19,0,0,0,1.17-.32,11.06,11.06,0,0,0,5.15-3.6,10.81,10.81,0,0,0,1.25-2A11.06,11.06,0,0,0,146.1,7l0,0c-.16-.2-.33-.39-.5-.57a11.05,11.05,0,0,0-19,5.87Z"/><path class="cls-1" d="M78.59,40.83a1.41,1.41,0,0,1-.71-2.63l37.45-21.61,8.8-5.08a1.4,1.4,0,0,1,1.23-.09l.22.09a22.17,22.17,0,0,1,2.49,1.25l0,0,.29.17h0c.49.29.9.55,1.3.82l.44.3c.24.15.47.32.71.49a33.14,33.14,0,0,1,9.46,10.69l.16.29v0a36.63,36.63,0,0,1,4.12,13.63,1.44,1.44,0,0,1-.35,1.09,1.41,1.41,0,0,1-1,.47H79.43a4,4,0,0,0-.6.05A1,1,0,0,1,78.59,40.83ZM84,37.94h57.63a33.6,33.6,0,0,0-3.59-11l-.1-.17-.06-.11a30.45,30.45,0,0,0-8.66-9.79l-.64-.45-.4-.27c-.37-.24-.75-.48-1.19-.74l-.31-.19c-.73-.41-1.33-.71-1.73-.9Z"/><path class="cls-1" d="M195,102.58H188.6a1.41,1.41,0,0,1-1.41-1.41A12.78,12.78,0,0,0,165.55,92a12.62,12.62,0,0,0-2.39,3.14,12.81,12.81,0,0,0-1.53,6.07,1.41,1.41,0,0,1-1.41,1.41H111.78a1.41,1.41,0,0,1-1.41-1.41,12.78,12.78,0,1,0-25.56,0,1.41,1.41,0,0,1-1.41,1.41H81.27a8.16,8.16,0,0,1-8.15-8.15V44a6.3,6.3,0,0,1,5.22-6.22h0a6.15,6.15,0,0,1,1-.08h98.73a6.33,6.33,0,0,1,6.17,5,.24.24,0,0,1,0,.08l.3,2,4.92,20.78v0a8.23,8.23,0,0,0,.54,1.68,9,9,0,0,0,2.72,3.49l5.72,4.4a11.78,11.78,0,0,1,4.56,9.26V94.43A8.16,8.16,0,0,1,195,102.58Zm-5-2.82h5a5.33,5.33,0,0,0,5.33-5.33V84.35a8.93,8.93,0,0,0-3.46-7l-5.72-4.4a11.81,11.81,0,0,1-4.3-6.8L181.9,45.3a.36.36,0,0,1,0-.1l-.31-2a3.51,3.51,0,0,0-3.41-2.72H79.43a3,3,0,0,0-.6,0h0A3.48,3.48,0,0,0,75.94,44V94.43a5.33,5.33,0,0,0,5.33,5.33h.78a15.6,15.6,0,0,1,31.07,0h45.75a15.6,15.6,0,0,1,31.07,0Z"/><path class="cls-1" d="M160.22,102.58h-17a1.41,1.41,0,0,1-1.41-1.41V53.09a5.74,5.74,0,0,1,5.73-5.73h12.72A5.74,5.74,0,0,1,166,53.09V91a1.41,1.41,0,0,1-.43,1,12.74,12.74,0,0,0-3.92,9.21A1.41,1.41,0,0,1,160.22,102.58Zm-15.6-2.82h14.25a15.62,15.62,0,0,1,4.29-9.4V53.09a2.92,2.92,0,0,0-2.91-2.91H147.53a2.91,2.91,0,0,0-2.91,2.91ZM164.57,91Z"/><path class="cls-1" d="M188.83,69.17H174.27a5.83,5.83,0,0,1-6.08-5.54V49.11a5.84,5.84,0,0,1,6.08-5.54h9a1.41,1.41,0,0,1,1.37,1.08l4.93,20.84v0a8.23,8.23,0,0,0,.54,1.68,1.41,1.41,0,0,1-1.29,2ZM174.27,46.39A3,3,0,0,0,171,49.11V63.63a3,3,0,0,0,3.26,2.72h12.6c0-.07,0-.15-.05-.23l-4.67-19.73Z"/><path class="cls-1" d="M174.41,112.21a11,11,0,0,1-7.88-18.77,11,11,0,0,1,18.92,7.73A11,11,0,0,1,174.41,112.21Zm0-19.26a8.21,8.21,0,0,0-8.22,8.22,8.22,8.22,0,1,0,14.09-5.75A8.12,8.12,0,0,0,174.41,93Z"/><path class="cls-1" d="M97.59,112.21a11,11,0,0,1-7.88-18.77,11,11,0,0,1,18.92,7.73A11,11,0,0,1,97.59,112.21Zm0-19.26a8.21,8.21,0,0,0-8.22,8.22,8.22,8.22,0,1,0,14.09-5.75A8.12,8.12,0,0,0,97.59,93Z"/><path class="cls-1" d="M87.85,67.12A6.59,6.59,0,0,1,84,65.89a6.66,6.66,0,0,1-2.8-5.43,3,3,0,0,1,0-.39V47.75a1.37,1.37,0,0,1,.41-1,1.38,1.38,0,0,1,1-.42H93.1a1.41,1.41,0,0,1,1.41,1.41V60.47c0,.12,0,.23,0,.34A6.65,6.65,0,0,1,87.85,67.12ZM84,49.16v11s0,.08,0,.13a1.64,1.64,0,0,0,0,.2,3.86,3.86,0,0,0,1.62,3.13,3.76,3.76,0,0,0,2.22.71,3.83,3.83,0,0,0,3.83-3.64,1.34,1.34,0,0,0,0-.19V49.16Z"/><path class="cls-1" d="M98.35,67.12a6.64,6.64,0,0,1-6.65-6.33,3.11,3.11,0,0,1,0-.32c0-.1,0-.25,0-.4V47.75a1.41,1.41,0,0,1,1.41-1.41H103.6A1.41,1.41,0,0,1,105,47.75V60.47c0,.12,0,.23,0,.34A6.66,6.66,0,0,1,98.35,67.12Zm-3.83-18v11.1a1.64,1.64,0,0,0,0,.2,1,1,0,0,0,0,.18,3.83,3.83,0,0,0,7.66,0,1.34,1.34,0,0,0,0-.19V49.16Z"/><path class="cls-1" d="M108.84,67.12a6.64,6.64,0,0,1-6.64-6.33,3.11,3.11,0,0,1,0-.32c0-.11,0-.25,0-.4V47.75a1.41,1.41,0,0,1,1.41-1.41h10.48a1.41,1.41,0,0,1,1.41,1.41V60.47c0,.12,0,.23,0,.34A6.64,6.64,0,0,1,108.84,67.12Zm-3.82-18v11a.57.57,0,0,1,0,.13v.38a3.84,3.84,0,0,0,7.67,0V49.16Z"/><path class="cls-1" d="M119.34,67.12a6.66,6.66,0,0,1-6.65-6.33c0-.09,0-.2,0-.32s0-.25,0-.4V47.75a1.41,1.41,0,0,1,1.41-1.41h10.48A1.41,1.41,0,0,1,126,47.75V60.47c0,.12,0,.23,0,.34A6.64,6.64,0,0,1,119.34,67.12Zm-3.82-18v11a.57.57,0,0,1,0,.13,1.64,1.64,0,0,0,0,.2c0,.07,0,.12,0,.18a3.84,3.84,0,0,0,7.67,0V49.16Z"/><path class="cls-1" d="M129.84,67.12a6.64,6.64,0,0,1-6.65-6.33c0-.09,0-.2,0-.32s0-.25,0-.4V47.75a1.41,1.41,0,0,1,1.41-1.41h10.49a1.41,1.41,0,0,1,1.41,1.41V60.47a6.66,6.66,0,0,1-6.66,6.65Zm-3.82-18v11s0,.09,0,.13a1.64,1.64,0,0,0,0,.2,1,1,0,0,0,0,.18,3.84,3.84,0,0,0,7.67-.17V49.16Z"/><path class="cls-1" d="M130,78.68H87.47a4.07,4.07,0,0,1-4.07-4.07V64.74a1.41,1.41,0,0,1,2.23-1.14,3.84,3.84,0,0,0,6.05-2.94,1.41,1.41,0,0,1,1.41-1.34,1.43,1.43,0,0,1,1.43,1.34,3.83,3.83,0,0,0,7.66,0,1.42,1.42,0,0,1,2.83,0,3.84,3.84,0,0,0,7.67,0,1.4,1.4,0,0,1,1.41-1.34,1.42,1.42,0,0,1,1.42,1.34,3.83,3.83,0,0,0,7.66,0,1.42,1.42,0,0,1,2.84,0,3.84,3.84,0,0,0,5.87,3.06,1.39,1.39,0,0,1,1.43,0,1.41,1.41,0,0,1,.73,1.24v9.7A4.07,4.07,0,0,1,130,78.68ZM86.22,66.92v7.69a1.25,1.25,0,0,0,1.25,1.25H130a1.25,1.25,0,0,0,1.25-1.25V67a6.34,6.34,0,0,1-1.38.14,6.64,6.64,0,0,1-5.25-2.55,6.68,6.68,0,0,1-10.5,0,6.67,6.67,0,0,1-10.49,0,6.68,6.68,0,0,1-10.5,0,6.64,6.64,0,0,1-5.25,2.55A6.38,6.38,0,0,1,86.22,66.92Z"/><path class="cls-1" d="M159.23,68.76a1.89,1.89,0,0,0-1.89,1.89v8a1.89,1.89,0,0,0,3.78,0v-8a1.88,1.88,0,0,0-1.89-1.89Z"/><path class="cls-1" d="M157.43,66.33h-7A3.45,3.45,0,0,1,147,62.89V58.4A3.45,3.45,0,0,1,150.45,55h7a3.45,3.45,0,0,1,3.44,3.44v4.49a3.43,3.43,0,0,1-3.44,3.44Zm-7-8.55a.63.63,0,0,0-.63.62v4.49a.63.63,0,0,0,.63.62h7a.6.6,0,0,0,.44-.18.62.62,0,0,0,.18-.44V58.4a.62.62,0,0,0-.62-.62Z"/><path class="cls-1" d="M143.21,102.58H111.78a1.41,1.41,0,0,1-1.41-1.41,12.81,12.81,0,0,0-1.53-6.07,1.41,1.41,0,0,1,0-1.39,1.42,1.42,0,0,1,1.22-.69h33.13a1.41,1.41,0,0,1,1.41,1.41v6.74A1.41,1.41,0,0,1,143.21,102.58Zm-30.09-2.82H141.8V95.84H112.25A15.45,15.45,0,0,1,113.12,99.76Z"/><path class="cls-1" d="M195,102.58H188.6a1.41,1.41,0,0,1-1.41-1.41,12.81,12.81,0,0,0-1.53-6.07,1.41,1.41,0,0,1,0-1.39A1.42,1.42,0,0,1,186.9,93h14.81a1.41,1.41,0,0,1,1.41,1.41A8.16,8.16,0,0,1,195,102.58Zm-5-2.82h5a5.35,5.35,0,0,0,5.14-3.92h-11A15.45,15.45,0,0,1,189.94,99.76Z"/><path class="cls-1" d="M201.71,87.44h-7.63a4.72,4.72,0,0,1-4.72-4.71v-.89a4.73,4.73,0,0,1,4.72-4.72h5.82a1.4,1.4,0,0,1,1.16.61,11.62,11.62,0,0,1,2.06,6.62V86A1.41,1.41,0,0,1,201.71,87.44Zm-7.63-7.5a1.9,1.9,0,0,0-1.9,1.9v.89a1.9,1.9,0,0,0,1.9,1.89h6.22v-.27a8.83,8.83,0,0,0-1.18-4.41Z"/><path class="cls-1" d="M174.41,106.9a5.74,5.74,0,0,1,0-11.47,5.74,5.74,0,0,1,5.73,5.74A5.74,5.74,0,0,1,174.41,106.9Zm0-8.65a2.92,2.92,0,0,0-2.91,2.92,2.91,2.91,0,0,0,5.82,0,2.92,2.92,0,0,0-2.91-2.92Z"/><path class="cls-1" d="M97.59,106.9a5.74,5.74,0,1,1,0-11.47,5.74,5.74,0,0,1,5.73,5.74A5.74,5.74,0,0,1,97.59,106.9Zm0-8.65a2.94,2.94,0,0,0-2.92,2.92,2.92,2.92,0,1,0,5-2A2.87,2.87,0,0,0,97.59,98.25Z"/><path class="cls-1" d="M135.09,50.63a1.41,1.41,0,0,1-1-.43c-.46-.47-.94-1-1.42-1.49a1.4,1.4,0,0,1-.25-1.52,1.41,1.41,0,0,1,1.29-.85h1.39a1.41,1.41,0,0,1,1.41,1.41v1.47a1.43,1.43,0,0,1-.88,1.31A1.61,1.61,0,0,1,135.09,50.63Z"/><path class="cls-1" d="M133.29,80.34H84.81a1.89,1.89,0,1,0,0,3.77h48.48a1.89,1.89,0,1,0,0-3.77Z"/><path class="cls-1" d="M83.4,102.58H81.27a8.16,8.16,0,0,1-8.15-8.15A1.41,1.41,0,0,1,74.53,93H85.1a1.41,1.41,0,0,1,1.24,2.08,12.81,12.81,0,0,0-1.53,6.07A1.41,1.41,0,0,1,83.4,102.58Zm-7.27-6.74a5.35,5.35,0,0,0,5.14,3.92h.78a15.47,15.47,0,0,1,.88-3.92Z"/><path class="cls-1" d="M64.28,59.71h-48a2,2,0,0,1,0-4h48a2,2,0,0,1,0,4Z"/><path class="cls-1" d="M57.28,72.71h-31a2,2,0,0,1,0-4h31a2,2,0,0,1,0,4Z"/><path class="cls-1" d="M64.28,88.44H2a2,2,0,0,1,0-4H64.28a2,2,0,0,1,0,4Z"/></g></g></svg>