<svg xmlns="http://www.w3.org/2000/svg" viewBox="0 0 547 877"><defs><style>.cls-1{fill:#a3411f;}.cls-2{fill:none;}</style></defs><title>1_maple</title><g id="Layer_2" data-name="Layer 2"><g id="Layer_1-2" data-name="Layer 1"><path class="cls-1" d="M506.71,577.53c-1.54,5.62-8.88,10.42-15.25,9-8.34-1.82-13.94-9.31-18.83-16.37l-.59-.85c-5-7.3-11.29-15.11-20.1-16.15-9.31-1.09-17.63,6.46-20.63,15.47a22.75,22.75,0,0,0-1,4.43c-1.37,10.79,3.25,21.42,8.63,30.88,3.2,5.63,6.84,12.2,4.43,18.22-3.54,8.87-17.61,7.94-23.85.71s-7.13-17.46-8.81-26.86c-1.9-10.72-5.65-21.91-14.14-28.66-.2-.17-.4-.32-.61-.48-7.29-5.47-18.69-5.92-25.42-.49a14.2,14.2,0,0,0-3.7,4.51c-6.86,13.2,7.05,32.17-3,43.13-8.57,4-16.27-7.33-17.77-16.66S343,576.2,333.87,573.64c-10.47-2.94-18.24,10-20.05,20.68a99.09,99.09,0,0,0,2.83,44.85c5,16.65,14.53,32.55,14,49.93s-18.76,35.47-34,27.17c-14.34-7.79-11.84-28.59-9.18-44.69a206.76,206.76,0,0,0-.57-70.23c-2.1-11.53-5.51-23.48-13.88-31.69a28,28,0,0,0-14.52-7.41,23.7,23.7,0,0,0-7-.25h0a18.38,18.38,0,0,0-10.23,4.47c-11.26,10.07-6,28.1-4.06,43.08s-8.51,35.66-22.37,29.66c-5.33-2.31-8.35-8-10-13.56-3.36-11.42-2.57-23.65-4.8-35.35s-8.9-24-20.43-26.94c-14.27-3.68-28.34,9.37-31.85,23.68s.3,29.23,3,43.71,4.15,30.41-3.41,43c-8,5.49-19.58-1-23.24-9.94s-2-19-1-28.66a179.07,179.07,0,0,0-1.46-46.42c-2.16-13.18-7.91-28.28-20.9-31.36-14-3.31-19.6,11.88-27.11,20.2-10.22,11.32-27.62,15.66-27.32-5.75.11-8.27,8.32-18.42,13-24.6,11.93-15.6,27.32-29.14,42.93-41,24.89-18.89,53.9-31.91,83.94-40.18,61-16.78,128.06-15.4,188.59,2.83,53.85,16.22,100.66,53.85,128.56,102.38Q505.05,574.4,506.71,577.53Z"/><rect class="cls-2" width="547" height="877"/></g></g></svg>