<svg xmlns="http://www.w3.org/2000/svg" viewBox="0 0 547 877"><defs><style>.cls-1{fill:#2b0f07;}.cls-2{fill:none;}</style></defs><title>2_fudge</title><g id="Layer_2" data-name="Layer 2"><g id="Layer_1-2" data-name="Layer 1"><path class="cls-1" d="M526.18,364.53a14.3,14.3,0,0,1-6.11,3.81c-8,2.45-14.34-2.22-19.58-7.8-3.56-3.78-10.4-17.39-16.16-11.18s-2.2,15.56-1,22.83-.9,16.05-7.79,20.4-18.08,4.36-19.45-5.48c-.76-5.4.06-10.93-.44-16.35a66.43,66.43,0,0,0-3.95-16.63c-3.33-9-10.29-20.69-20.31-23-6.24-1.44-11.7,2.06-14.44,7.55-2.82,5.65-2.66,11.9-1.92,18,2.53,20.92,17.49,46.9,10.19,68.14-2.8,8.15-12,14.77-20,11.58-15.72-6.24-13.22-36.31-11.93-49.08,1.72-17,.26-36.24-12.31-47.8-8.23-7.57-23.23-8.58-32.36-1.91-13.95,10.18-12,25.32-9.47,40.38,1.6,9.44,4.72,19.13,1.61,28.62-1.36,4.12-4.91,9.38-9.83,9.11-4.68-.26-8-5.47-9.63-9.32-2.2-5.16-2.75-10.87-3.45-16.38-1.13-8.89-1.79-18.22-6.66-26-6.92-11.06-21.4-1.52-24.92,7.37-3.31,8.37-1.68,17.85,1,26.46,4.54,14.77,12,29.39,10.54,44.77s-18,30.44-31.66,23.18c-15.17-8.06-10-30.48-5.31-47a153.7,153.7,0,0,0,3.83-65.4c-1.68-10.58-5-21.85-13.74-28.1-12.28-8.83-31.06-3.1-39.63,9.36s-8.51,29.21-4,43.63c3.62,11.46,7.32,28.3-4.18,31.8-8.37,2.54-16-6.71-17-15.39s1.91-17.46,1-26.15c-2.2-21.52-32-34.19-49-20.83-15.83,12.43-15.52,36.26-12.11,56.09s8,41.9-2.94,58.77c-10.82,2.88-21.44-7.49-23.5-18.5s1.71-22.15,4.69-32.95c3.93-14.27,6.49-29.64,1.93-43.73-14.34-44.27-48.12,9.81-67.92,14.24-11.63,2.6-17.76-2.95-20.43-11.24.48-1,1-1.91,1.46-2.85s1.08-2.06,1.64-3.08l.17-.3.1-.18c.51-.93,1-1.85,1.57-2.77s1.21-2.07,1.84-3.1,1.15-1.87,1.74-2.79l.28-.44c.59-.92,1.18-1.82,1.79-2.72.06-.1.13-.19.19-.28q1-1.43,1.95-2.82c.66-.94,1.33-1.86,2-2.78l.43-.58c.5-.67,1-1.33,1.52-2l.18-.23.46-.6c.65-.83,1.31-1.65,2-2.46,26.56-32.48,64.62-53.95,104.42-67.2,43.11-14.34,90.49-22,135.55-26.53l2.1-.2,2.09-.2c54.91-5,113.58.76,161.71,29.62q2.82,1.69,5.6,3.49l1.89,1.24c.27.17.53.35.8.54.58.37,1.15.76,1.72,1.15l1.09.76c1.32.9,2.62,1.83,3.92,2.78,1,.71,2,1.44,2.94,2.18.6.44,1.19.9,1.78,1.36s1.28,1,1.92,1.49l.69.54c.93.74,1.85,1.49,2.77,2.24.7.58,1.4,1.16,2.1,1.76l.64.53c.34.28.68.57,1,.87q1.14,1,2.25,1.95c.93.81,1.85,1.63,2.76,2.47l.31.28c.94.86,1.87,1.72,2.8,2.6s1.85,1.75,2.76,2.64l.12.12c.93.91,1.86,1.83,2.78,2.76l.19.2c.85.86,1.7,1.73,2.53,2.6l.25.25c.85.89,1.7,1.79,2.54,2.7l.1.11A230.43,230.43,0,0,1,526.18,364.53Z"/><rect class="cls-2" width="547" height="877"/></g></g></svg>