<svg xmlns="http://www.w3.org/2000/svg" viewBox="0 0 547 877"><defs><style>.cls-1{fill:#2b0f07;}.cls-2{fill:none;}</style></defs><title>3_fudge</title><g id="Layer_2" data-name="Layer 2"><g id="Layer_1-2" data-name="Layer 1"><path class="cls-1" d="M512.56,121.61a22.07,22.07,0,0,1-13.31,2.67c-6.91-.81-12.87-5-19.16-7.94s-14.2-4.58-19.86-.56c-10.65,7.56-6.3,29.32-19,32.35-8.21,2-15-7.22-16.11-15.59s.87-17.18-1.91-25.16c-6.25-3.1-14.12,1.58-17,8S404.11,129,404.91,136q2,17.19,4,34.38c.66,5.68,1.31,11.54-.25,17s-5.89,10.63-11.57,11.31c-6.21.76-12-4.05-14.49-9.79s-2.4-12.22-2.27-18.47q.49-24.86,1-49.73c.2-10.12-1.58-23.06-11.37-25.64-10.32-2.73-18.71,9.81-18.49,20.49s5.16,21,4.61,31.62-11.2,22.11-20.7,17.23c-6.49-3.33-7.93-12-7.23-19.24,1-10,4.45-19.59,6.07-29.51s1.09-20.9-5-28.85S309.84,76,302.78,83.15c-6.06,6.13-5.25,16.17-2.95,24.48s5.69,17,3.4,25.29-13.84,14.26-19.7,7.93,0-16.44.85-25.14a20.72,20.72,0,0,0-36.46-15.45c-5.73,6.8-6.51,16.54-5.23,25.33S247,142.87,248,151.71s-.61,18.62-7.07,24.73-18.67,6.17-23.13-1.51c-2.85-4.9-1.87-11-.81-16.6q4.59-23.94,9.16-47.88c1.27-6.64,2.54-13.5,1.16-20.12s-6.09-13-12.74-14.25C206,74.5,198,82.15,195.75,90.54s-.4,17.26.95,25.85,2.07,17.88-2.08,25.51c-2.36,4.33-7,8-11.83,7.19-5.87-1-8.76-8.11-8.09-14s3.75-11.27,5.28-17c2-7.54,1.07-16.19-3.92-22.2s-14.45-8.39-21-4.17c-7.5,4.83-8.53,15.2-8.78,24.12q-1,34.19-1.94,68.36c-.12,4.24-.47,9-3.66,11.81-3.82,3.35-10,2.12-14.06-1-9.1-6.92-10.52-20.31-7.84-31.42s8.56-21.23,11.41-32.3,1.85-24.41-6.93-31.73a20.79,20.79,0,0,0-24.66-.9c-11.81,8.45-14.54,29.09-29,30.81-5,.6-9.57-1.53-13.42-4.89C81.06,82.39,121,46.78,159.65,28,234-8,325.24-7.69,401.53,22.44c36.26,14.33,73.15,35.06,93.77,69.31C501,101.2,507,111.23,512.56,121.61Z"/><rect class="cls-2" width="547" height="877"/></g></g></svg>